<svg xmlns="http://www.w3.org/2000/svg" width="596.001" height="600.803" viewBox="0 0 596.001 600.803">
  <g id="AIML_NEpal_Logo_Blue" data-name="AIML NEpal Logo Blue" transform="translate(-84.475 -83)" opacity="0.6">
    <ellipse id="Ellipse_11" data-name="Ellipse 11" cx="125.375" cy="125.907" rx="125.375" ry="125.907" transform="translate(257.101 259.874)" fill="#022852"/>
    <g id="Group_3174" data-name="Group 3174" transform="translate(277.392 83)">
      <circle id="Ellipse_12" data-name="Ellipse 12" cx="35.95" cy="35.95" r="35.95" transform="translate(68.752)" fill="#022852"/>
      <path id="Path_2039" data-name="Path 2039" d="M-16346.721-4018.806c31.931,18.436,98.3,101.634,209.529.965C-16158.633-3937.816-16277.774-3871.168-16346.721-4018.806Z" transform="translate(16346.721 4066.084)" fill="#022852"/>
    </g>
    <g id="Group_3176" data-name="Group 3176" transform="translate(680.475 277.959) rotate(90)">
      <circle id="Ellipse_12-2" data-name="Ellipse 12" cx="35.95" cy="35.95" r="35.95" transform="translate(68.75 0)" fill="#022852"/>
      <path id="Path_2039-2" data-name="Path 2039" d="M0,0C31.931,18.436,98.3,101.634,209.531.964,188.088,80.99,68.946,147.638,0,0Z" transform="translate(0 47.278)" fill="#022852"/>
    </g>
    <g id="Group_3177" data-name="Group 3177" transform="translate(219.315 277.957) rotate(90)">
      <ellipse id="Ellipse_12-3" data-name="Ellipse 12" cx="35.95" cy="35.949" rx="35.95" ry="35.949" transform="translate(68.752 62.942)" fill="#022852"/>
      <path id="Path_2039-3" data-name="Path 2039" d="M0,87.563C31.931,69.127,98.3-14.07,209.531,86.6,188.088,6.574,68.946-60.074,0,87.563Z" transform="translate(0 0)" fill="#022852"/>
    </g>
    <g id="Group_3178" data-name="Group 3178" transform="translate(193.239 425.826) rotate(45)">
      <ellipse id="Ellipse_12-4" data-name="Ellipse 12" cx="35.95" cy="35.949" rx="35.95" ry="35.949" transform="translate(68.752 62.942)" fill="#022852"/>
      <path id="Path_2039-4" data-name="Path 2039" d="M0,87.563C31.931,69.127,98.3-14.07,209.531,86.6,188.088,6.574,68.946-60.074,0,87.563Z" transform="translate(0 0)" fill="#022852"/>
    </g>
    <g id="Group_3179" data-name="Group 3179" transform="translate(667.711 521.172) rotate(135)">
      <ellipse id="Ellipse_12-5" data-name="Ellipse 12" cx="35.95" cy="35.949" rx="35.95" ry="35.949" transform="translate(68.752 0)" fill="#022852"/>
      <path id="Path_2039-5" data-name="Path 2039" d="M0,0C31.931,18.435,98.3,101.633,209.531.965,188.089,80.99,68.947,147.637,0,0Z" transform="translate(0 47.278)" fill="#022852"/>
    </g>
    <g id="Group_3180" data-name="Group 3180" transform="translate(572.365 341.639) rotate(-135)">
      <ellipse id="Ellipse_12-6" data-name="Ellipse 12" cx="35.95" cy="35.949" rx="35.95" ry="35.949" transform="translate(68.752 62.942)" fill="#022852"/>
      <path id="Path_2039-6" data-name="Path 2039" d="M0,87.564C31.931,69.128,98.3-14.07,209.532,86.6,188.09,6.573,68.947-60.074,0,87.564Z" transform="translate(0 0)" fill="#022852"/>
    </g>
    <g id="Group_3181" data-name="Group 3181" transform="translate(96.508 244.909) rotate(-45)">
      <ellipse id="Ellipse_12-7" data-name="Ellipse 12" cx="35.95" cy="35.949" rx="35.95" ry="35.949" transform="translate(68.752 0)" fill="#022852"/>
      <path id="Path_2039-7" data-name="Path 2039" d="M0,0C31.931,18.435,98.3,101.633,209.531.965,188.089,80.99,68.947,147.637,0,0Z" transform="translate(0 47.278)" fill="#022852"/>
    </g>
    <g id="Group_3175" data-name="Group 3175" transform="translate(277.393 548.962)">
      <circle id="Ellipse_12-8" data-name="Ellipse 12" cx="35.95" cy="35.95" r="35.95" transform="translate(68.752 62.942)" fill="#022852"/>
      <path id="Path_2039-8" data-name="Path 2039" d="M-16346.721-3931.242c31.931-18.436,98.3-101.634,209.529-.965C-16158.633-4012.232-16277.774-4078.88-16346.721-3931.242Z" transform="translate(16346.721 4018.806)" fill="#022852"/>
    </g>
  </g>
</svg>
