<svg xmlns="http://www.w3.org/2000/svg" width="436.14" height="389.69" viewBox="0 0 436.14 389.69">
  <g id="Business_deal-cuate" data-name="Business deal-cuate" transform="translate(-30.46 -83.22)">
    <g id="freepik--Shadow--inject-9">
      <ellipse id="Ellipse_13" data-name="Ellipse 13" cx="180.44" cy="23.51" rx="180.44" ry="23.51" transform="translate(69.56 425.89)" fill="#ebebeb"/>
      <ellipse id="Ellipse_14" data-name="Ellipse 14" cx="54.02" cy="12.94" rx="54.02" ry="12.94" transform="translate(30.46 397.79)" fill="#ebebeb"/>
    </g>
    <g id="freepik--Floor--inject-9">
      <path id="Path_2040" data-name="Path 2040" d="M33.4,392.79l54.15-.24,54.15-.09L250,392.3l108.3.16,54.15.09,54.15.24-54.15.25-54.15.09-108.3.16-108.3-.16-54.15-.09Z" fill="#263238"/>
    </g>
    <g id="freepik--Characters--inject-9">
      <path id="Path_2041" data-name="Path 2041" d="M335.63,378.5v43.1c0,8.23-.07,15.45-.48,19.18a.06.06,0,0,1,0,.06,5.71,5.71,0,0,1-.6,2.55l-.05.05c-2.44,1.67-68.24,3.93-70.56,3.23s-.53-7.36,2-9.49,27.3-14.25,27.3-14.25l.41-43.05Z" fill="#ad6359"/>
      <path id="Path_2042" data-name="Path 2042" d="M335.62,412.75v8.85c0,8.23-.07,15.45-.48,19.18a.06.06,0,0,1,0,.06,11.67,11.67,0,0,1-.6,2.55l-.05.05c-2.44,1.67-68.24,3.93-70.56,3.23s-.53-7.36,2-9.49,27.3-14.25,27.3-14.25l-.12-9Z" fill="#c7c7c7"/>
      <path id="Path_2043" data-name="Path 2043" d="M263.93,446.67c2.32.7,68.12-1.55,70.57-3.23.94-.62,1.17-10.23,1.12-21.84v-.37l-42.47,1,.05.72s-24.8,12.13-27.3,14.26S261.6,446,263.93,446.67Z" fill="#263238"/>
      <path id="Path_2044" data-name="Path 2044" d="M264.58,444.1c11.09-.66,55.85-2.24,66.85-2,.09,0,.09.06,0,.07-11,.88-55.74,2.11-66.84,2.15C264.36,444.28,264.35,444.11,264.58,444.1Z" fill="#455a64"/>
      <path id="Path_2045" data-name="Path 2045" d="M289.62,423.18c4.34-1,9.7-.48,13.14,2.52.14.12,0,.3-.17.26a61.629,61.629,0,0,0-12.93-2.23.28.28,0,0,1-.04-.55Z" fill="#455a64"/>
      <path id="Path_2046" data-name="Path 2046" d="M286.54,425.19c4.33-1,9.7-.48,13.14,2.52.13.11,0,.3-.18.26a61.412,61.412,0,0,0-12.93-2.23.28.28,0,0,1-.03-.55Z" fill="#455a64"/>
      <path id="Path_2047" data-name="Path 2047" d="M283.45,427.19c4.34-1,9.7-.47,13.14,2.52.14.12,0,.31-.17.27a61.641,61.641,0,0,0-12.93-2.24.28.28,0,0,1-.04-.55Z" fill="#455a64"/>
      <path id="Path_2048" data-name="Path 2048" d="M339.4,218.83l-.04,2.85-1.61,125.86-.01.48-.95,75.39-46.06-.92,8.89-203.51.12-2.72.45-23.61h38.9Z" fill="#455a64"/>
      <path id="Path_2049" data-name="Path 2049" d="M292.66,414.81c7.19-.07,5.12-.15,12.31-.13,3.52,0,26.65.09,29.93.67.07,0,.07.14,0,.15-3.3.5-26.42,0-29.94-.06-7.19-.15-5.12-.19-12.31-.42a.11.11,0,0,1,.01-.21Z" fill="#263238"/>
      <path id="Path_2050" data-name="Path 2050" d="M313.29,232.07a.08.08,0,1,0-.16,0c0,12.05-.49,18.8-.78,30.84s-.64,24.08-1,36.11c-.65,24.07-1.62,48.12-2.51,72.18q-.75,20.24-1.87,40.46a.07.07,0,0,0,.14,0c1.75-24,3.42-48.08,4.38-72.15s1.64-48.13,1.75-72.2C313.34,253.8,313.26,245.58,313.29,232.07Z" fill="#263238"/>
      <path id="Path_2051" data-name="Path 2051" d="M339.39,218.83l-1.64,128.71L306.88,192.65h32.2Z" fill="#263238"/>
      <path id="Path_2052" data-name="Path 2052" d="M387.29,376.17s5.8,42.67,5.8,42.7c1.16,8.16,2,15.33,2.12,19.08v.06a5.85,5.85,0,0,1-.24,2.6q0,.03,0,.06c-2.2,2-67.1,13.1-69.49,12.72s-1.51-7.22.66-9.67,25.13-17.8,25.13-17.8l-5.4-42.71Z" fill="#ad6359"/>
      <path id="Path_2053" data-name="Path 2053" d="M391.9,410.11s1.19,8.73,1.19,8.76c1.16,8.16,2,15.33,2.12,19.08v.06a11.533,11.533,0,0,1-.24,2.6.587.587,0,0,0,0,.06c-2.2,2-67.1,13.1-69.49,12.72s-1.51-7.22.66-9.67,25.13-17.8,25.13-17.8L349.9,417Z" fill="#c7c7c7"/>
      <path id="Path_2054" data-name="Path 2054" d="M325.44,453.39c2.4.38,67.29-10.73,69.49-12.72.85-.75-.22-10.29-1.84-21.8l-.06-.36-41.94,6.7.14.71s-22.94,15.36-25.13,17.81S323,453,325.44,453.39Z" fill="#263238"/>
      <path id="Path_2055" data-name="Path 2055" d="M325.74,450.75c10.9-2.14,55-9.75,66-11,.09,0,.1.05,0,.07-10.75,2.36-54.94,9.61-65.94,11.15C325.54,451,325.51,450.8,325.74,450.75Z" fill="#455a64"/>
      <path id="Path_2056" data-name="Path 2056" d="M347.73,426.65c4.17-1.54,9.55-1.78,13.36.72.15.1,0,.31-.14.29a61.131,61.131,0,0,0-13.11-.47.28.28,0,0,1-.11-.54Z" fill="#455a64"/>
      <path id="Path_2057" data-name="Path 2057" d="M344.94,429.05c4.17-1.54,9.55-1.78,13.36.73.15.09,0,.3-.14.28a61.75,61.75,0,0,0-13.11-.47.28.28,0,0,1-.11-.54Z" fill="#455a64"/>
      <path id="Path_2058" data-name="Path 2058" d="M342.16,431.46c4.17-1.54,9.54-1.78,13.36.72.15.1,0,.31-.14.29a60.509,60.509,0,0,0-13.11-.47.28.28,0,0,1-.11-.54Z" fill="#455a64"/>
      <path id="Path_2059" data-name="Path 2059" d="M304.15,192.61h0c.17.8,2.89,13.42,5.71,24.26,2.05,7.92,4.16,14.88,5.37,15.6,1.37.81,8.05,3.77,10.29,4.7L335.75,335l13.83,90.58,45.22-7L362.62,220.34l-5.24-27.73Z" fill="#455a64"/>
      <path id="Path_2060" data-name="Path 2060" d="M349.85,416.49c7.1-1.14,5-.92,12.16-2,3.48-.52,26.36-3.91,29.69-3.82a.071.071,0,0,1,0,.14c-3.18,1-26.12,4-29.61,4.44-7.13.92-5.09.58-12.23,1.43a.11.11,0,0,1-.01-.19Z" fill="#263238"/>
      <path id="Path_2061" data-name="Path 2061" d="M376,389.44c-1.13-6.28-2.25-12.56-3.41-18.84q-3.47-18.84-7-37.67-7.08-37.69-14-75.44c-2.58-14.2-2.52-12.87-4.77-27.14,0-.09-.18-.08-.16,0,2.16,12.68,1.14,9.9,3.18,22.6s4.18,25.13,6.43,37.66c4.52,25.19,9.26,50.34,14.05,75.48q2,10.58,4.09,21.13c1.4,7.18,3,14.32,4.48,21.48,0,.16.29.15.26,0C378.11,402.29,377.17,395.85,376,389.44Z" fill="#263238"/>
      <path id="Path_2062" data-name="Path 2062" d="M363.57,231.29c-1.2-.31-2.49-.41-3.71-.6-1-.16-2-.34-3-.55a12.87,12.87,0,0,1-5.22-2.2c-1.7-1.32-2.57-3.33-3.39-5.26q-.74-1.71-1.5-3.42l-.75-1.65a18.582,18.582,0,0,1-.93-2c0-.1-.19,0-.15,0a11.722,11.722,0,0,1,.42,1.43c.17.55.32,1.1.49,1.65.31,1,.61,2,.93,3a23.323,23.323,0,0,0,2.09,5.18c1.82,2.88,5.06,4.05,8.3,4.46.93.11,1.87.18,2.81.23a19.929,19.929,0,0,0,3.54,0,.16.16,0,0,0,.07-.27Z" fill="#263238"/>
      <path id="Path_2063" data-name="Path 2063" d="M311.68,230.74a86.571,86.571,0,0,1,13.77,6.42.154.154,0,1,1-.13.28c-4.64-2-9.37-3.9-13.89-6.14a.31.31,0,0,1,.25-.56Z" fill="#263238"/>
      <path id="Path_2064" data-name="Path 2064" d="M310.28,199c0-.16.3-.2.3,0a152.408,152.408,0,0,0,.78,15.5c.21,2.39,2.13,15.59,6.28,14.63.69-.16,1-.85,1.15-1.89a16.523,16.523,0,0,0-.55-4.05c-.46-2.77-.83-5.54-1.06-8.33a74.818,74.818,0,0,1,.17-15.62.13.13,0,0,1,.26,0,145.328,145.328,0,0,0,1.26,21.57c.52,3.43,2.25,8.6-1.34,9.13s-6-8.12-6.47-10.49a79,79,0,0,1-.78-20.45Z" fill="#263238"/>
      <path id="Path_2065" data-name="Path 2065" d="M317.53,229.43a23.865,23.865,0,0,1,.93,2.74,6.24,6.24,0,0,1,.39,2.25.16.16,0,0,1-.29.06,7.679,7.679,0,0,1-1-2.19c-.32-.84-.65-1.69-.94-2.54a.482.482,0,0,1,.91-.32Z" fill="#263238"/>
      <path id="Path_2066" data-name="Path 2066" d="M363.09,223.25c-5.48-.36-63.35-7-63.35-7l.45-23.61h57.23l5.24,27.73Z" fill="#263238"/>
      <path id="Path_2067" data-name="Path 2067" d="M322.56,138.42c-6.62,20.72-17.83,42.11-21.07,46.32-8.69,11.32-34.8,22.47-42.77,23.91-3.45.62-11.72-21.63-9.58-24.69s34.59-15.46,36.18-17.11c1.1-1.15,14.79-18.79,24-29.43C320.83,124.19,324.3,133,322.56,138.42Z" fill="#ad6359"/>
      <path id="Path_2068" data-name="Path 2068" d="M256.07,179.64l12.82,26s27.25-11.81,33.74-20.24,18.25-37,20-46.1-1.27-15.6-13.46-2.3-22.29,26.55-24.47,28.77S256.07,179.64,256.07,179.64Z" fill="#ebebeb"/>
      <path id="Path_2069" data-name="Path 2069" d="M257.15,178.32l15.36,26.94s24-11.47,30.12-19,16.21-30.65,19.37-43.13,1.31-21.33-12.82-6.06-22.12,26.36-25,28.85C282.81,167,257.15,178.32,257.15,178.32Z" fill="#37474f"/>
      <circle id="Ellipse_15" data-name="Ellipse 15" cx="1.41" cy="1.41" r="1.41" transform="translate(262.21 177.99)" fill="#263238"/>
      <circle id="Ellipse_16" data-name="Ellipse 16" cx="1.41" cy="1.41" r="1.41" transform="translate(268.86 174.93)" fill="#263238"/>
      <path id="Path_2070" data-name="Path 2070" d="M322,143.09c-3.16,12.48-13.24,35.56-19.37,43.13-2.62,3.23-8.48,7.17-14.35,10.63l30.93-67.74C324,127.81,324.15,134.61,322,143.09Z" fill="#263238"/>
      <path id="Path_2071" data-name="Path 2071" d="M366.11,213.34c-.16.18-69.34.39-70-.32-.89-1,14.74-76,21.84-85.21,1.51-2,6.52-2.53,10.78-2a18.8,18.8,0,0,1,3.28.67h.12a8,8,0,0,1,2.41,1.18c11.84,9.46,21.82,42.53,24.15,52.46C362.59,196.51,366.68,212.69,366.11,213.34Z" fill="#ebebeb"/>
      <path id="Path_2072" data-name="Path 2072" d="M334.34,126.78s-5.63,30.7-6.61,38.68.46,50.13.46,50.13l43.44,3.21s-9.39-27.9-9.5-29.67c0,0-7.8-33.42-15.11-47.38a49.83,49.83,0,0,0-12.68-14.97Z" fill="#37474f"/>
      <path id="Path_2073" data-name="Path 2073" d="M371.63,218.8l-19.7-1.46-14.06-87.47h0v.06l8.82,11.3c.1.18.2.36.29.54,7.31,14,15.11,47.38,15.11,47.38C362.24,190.9,371.63,218.8,371.63,218.8Z" fill="#263238"/>
      <path id="Path_2074" data-name="Path 2074" d="M317.53,127.45s-4.61,31.09-5.11,33.66-7.48,53.27-7.48,53.27l-10.87.34,5.67-23.18S312.35,134.07,317.53,127.45Z" fill="#37474f"/>
      <path id="Path_2075" data-name="Path 2075" d="M323.88,144.51l-3.08-6-3.98,4.34.98,4.32,3.92.51Z" fill="#263238"/>
      <path id="Path_2076" data-name="Path 2076" d="M321.72,147.68l1.88,44.14-8.27,14.6-4.3-16.43,6.77-42.82Z" fill="#263238"/>
      <rect id="Rectangle_8824" data-name="Rectangle 8824" width="51.84" height="85.56" transform="translate(319.934 321.516) rotate(-89.94)" fill="#ffc727"/>
      <rect id="Rectangle_8825" data-name="Rectangle 8825" width="24.41" height="85.56" transform="translate(319.958 294.091) rotate(-89.94)" opacity="0.1"/>
      <rect id="Rectangle_8826" data-name="Rectangle 8826" width="89.61" height="24.19" transform="translate(407.555 286.326) rotate(-179.94)" fill="#ffc727"/>
      <path id="Path_2077" data-name="Path 2077" d="M343.92,248.28l-.02,13.79,6.49.01.01-7.85,24.75.03-.01,7.85h6.49l.01-13.8Z" fill="#263238"/>
      <rect id="Rectangle_8827" data-name="Rectangle 8827" width="5.84" height="11.56" transform="translate(395.245 292.081) rotate(-179.94)" fill="#263238"/>
      <rect id="Rectangle_8828" data-name="Rectangle 8828" width="5.84" height="11.56" transform="translate(336.075 292.033) rotate(-179.94)" fill="#263238"/>
      <path id="Path_2078" data-name="Path 2078" d="M343.9,136c19.3,17.51,31.55,42.52,32.38,47.57,2,12.21,4.53,33.61,4.1,43-.16,3.48-26.53-.74-26.48-4.46.17-11.64-1.38-37.24-1.45-37.69-.47-3.13-6.21-17.2-12-32.46S335.78,128.65,343.9,136Z" fill="#ad6359"/>
      <path id="Path_2079" data-name="Path 2079" d="M351.12,258.59a4.14,4.14,0,0,0,4.65-.85,6.14,6.14,0,0,0,3.27,2.6c2.43.7,4.59-2.81,4.59-2.81a7.62,7.62,0,0,0,3.89,2.2c2.39.43,5.08-2.8,5.08-2.8a6.71,6.71,0,0,0,4.63-.22c2.49-1.17,4.6-8.31,5.12-12.42s-1.87-16.26-2.09-18.62l-26.36-3.54s-7.56,17.78-7.48,22.7C346.49,249,348.22,257.15,351.12,258.59Z" fill="#ad6359"/>
      <path id="Path_2080" data-name="Path 2080" d="M355.37,257.5c-1.13-4.39-.9-8.88-.92-13.36a.08.08,0,1,1,.16,0c0,4.46.82,8.87,1,13.33a.121.121,0,0,1-.24.03Z" fill="#263238"/>
      <path id="Path_2081" data-name="Path 2081" d="M363.3,257.4a11.829,11.829,0,0,1-.08-3.09c0-1.09.12-2.19.21-3.28q.26-3.28.67-6.54c0-.1.16-.1.15,0-.16,2.18-.29,4.36-.37,6.54,0,1.1-.06,2.19-.08,3.28a14.507,14.507,0,0,1-.2,3.09.16.16,0,0,1-.3,0Z" fill="#263238"/>
      <path id="Path_2082" data-name="Path 2082" d="M372.6,256.84a8.45,8.45,0,0,1,.08-2.79c.1-1,.19-2,.28-3,.18-2,.35-4,.45-6a.08.08,0,0,1,.16,0c-.1,2-.17,4.06-.28,6.09l-.18,3a7.84,7.84,0,0,1-.41,2.69.06.06,0,0,1-.1.01Z" fill="#263238"/>
      <path id="Path_2083" data-name="Path 2083" d="M352.61,222.25l29.23,1.58s-2.16-32-4.48-40.89-22.12-38.52-33.81-49.26c-11-10.11-11-1.7-6.83,10.15s14.49,40.49,14.84,42.58S352.61,222.25,352.61,222.25Z" fill="#37474f"/>
      <path id="Path_2084" data-name="Path 2084" d="M353.92,216.35c1.12-.1,2.25,0,3.37,0s2.24.05,3.36.1c2.16.09,4.32.22,6.48.36l6.47.43c2.23.15,4.51.19,6.72.52a.08.08,0,0,1,0,.15c-2.23.09-4.5-.11-6.73-.19l-6.6-.27c-2.2-.1-4.4-.21-6.6-.35-1.08-.06-2.16-.14-3.23-.26s-2.19-.13-3.25-.34A.076.076,0,0,1,353.92,216.35Z" fill="#263238"/>
      <path id="Path_2085" data-name="Path 2085" d="M321.84,137.71c1.14-.05,8.71-6,11-10.58.16-.32-.43-3.58-.95-7.57-.31-2.42-.6-5.13-.68-7.62,0-.51-1.72.49-1.72.49l-3.2.88-10.56,2.94a39.459,39.459,0,0,1,1.82,9.51,4.811,4.811,0,0,1-.07,1,1.113,1.113,0,0,1,0,.17C317.25,128.9,320,137.78,321.84,137.71Z" fill="#ad6359"/>
      <path id="Path_2086" data-name="Path 2086" d="M317.52,126.78a1.113,1.113,0,0,1,0,.17,8.53,8.53,0,0,0,1.61,0c10.5-.58,11.37-14,11.37-14l-4.15.32-10.56,2.94a39.46,39.46,0,0,1,1.82,9.51,4.814,4.814,0,0,1-.09,1.06Z" fill="#263238"/>
      <path id="Path_2087" data-name="Path 2087" d="M330.82,90.84c2.52,5.21,2.1,21.47-1.25,25.6-4.84,6-14,7.91-19.4,1.8-5.23-5.91-4.3-27.09-.45-31C315.39,81.56,327.1,83.14,330.82,90.84Z" fill="#ad6359"/>
      <path id="Path_2088" data-name="Path 2088" d="M316.88,102.7s.08,0,.08.1c-.06,1.09.06,2.36,1,2.74v.06C316.79,105.41,316.65,103.73,316.88,102.7Z" fill="#263238"/>
      <path id="Path_2089" data-name="Path 2089" d="M317.88,101.58c1.76-.1,1.83,3.44.19,3.53S316.4,101.66,317.88,101.58Z" fill="#263238"/>
      <path id="Path_2090" data-name="Path 2090" d="M310.54,103s-.08.05-.08.1c.05,1.09-.07,2.36-1.06,2.74v.06C310.62,105.7,310.77,104,310.54,103Z" fill="#263238"/>
      <path id="Path_2091" data-name="Path 2091" d="M309.54,101.86c-1.76-.1-1.84,3.44-.2,3.53S311,102,309.54,101.86Z" fill="#263238"/>
      <path id="Path_2092" data-name="Path 2092" d="M319.25,99.94c-.49-.12-.92-.3-1.38-.46a2.3,2.3,0,0,1-1.32-.74.73.73,0,0,1,.11-.9,1.85,1.85,0,0,1,1.86-.23,2.73,2.73,0,0,1,1.59,1.15.8.8,0,0,1-.86,1.18Z" fill="#263238"/>
      <path id="Path_2093" data-name="Path 2093" d="M308.14,100.11a13.16,13.16,0,0,0,1.4-.39,2.38,2.38,0,0,0,1.35-.67.74.74,0,0,0-.06-.91,1.84,1.84,0,0,0-1.85-.32,2.71,2.71,0,0,0-1.64,1.07.8.8,0,0,0,.8,1.22Z" fill="#263238"/>
      <path id="Path_2094" data-name="Path 2094" d="M318.07,112.85c-.26.26-.52.62-.91.66a3,3,0,0,1-1.18-.26l-.05.06a1.48,1.48,0,0,0,1.4.57,1.17,1.17,0,0,0,.84-1C318.19,112.83,318.11,112.81,318.07,112.85Z" fill="#263238"/>
      <path id="Path_2095" data-name="Path 2095" d="M316.86,109.59a3.72,3.72,0,0,1-2.46,1.7,4.61,4.61,0,0,1-1.34.09,1.091,1.091,0,0,1-.26,0h-.24a.27.27,0,0,1-.22-.24h0a.41.41,0,0,1,0-.11h0v-2.22c-.31.16-1.87.89-1.85.45a56.141,56.141,0,0,1,1.25-11.31.1.1,0,1,1,.2,0c0,3.52-.64,7-.7,10.54a6.6,6.6,0,0,1,1.75-.57c.12,0-.16,2.48-.11,2.86a5.15,5.15,0,0,0,3.83-1.27C316.84,109.43,316.92,109.5,316.86,109.59Z" fill="#263238"/>
      <path id="Path_2096" data-name="Path 2096" d="M313.55,110.94a4.34,4.34,0,0,0,1.79,1.34,2,2,0,0,0,1.21.06c.88-.25.88-1,.71-1.74a4.75,4.75,0,0,0-.41-1,5.73,5.73,0,0,1-3.3,1.34Z" fill="#263238"/>
      <path id="Path_2097" data-name="Path 2097" d="M315.34,112.28a2,2,0,0,0,1.21.06c.88-.25.88-1,.71-1.74A2.08,2.08,0,0,0,315.34,112.28Z" fill="#ff9abb"/>
      <path id="Path_2098" data-name="Path 2098" d="M307.48,92.68c.57-1.4,1.24-2.81,2.07-3.11s1.42,1.74,3.33,1.83c2.57.13,3.77-2.25,7.36-2.57,5.15-.46,7.5,3.81,7.77,11.13.23,6.53,4.2,7.07,4.2,7.07s2.12-14.46-2-19.16-13.52-6.63-19.7-2C308.22,87.62,307.48,92.68,307.48,92.68Z" fill="#263238"/>
      <path id="Path_2099" data-name="Path 2099" d="M328.86,104.52s2.89-5.61,5.39-4.65.81,8.76-1.79,10.15a2.8,2.8,0,0,1-3.92-1Z" fill="#ad6359"/>
      <path id="Path_2100" data-name="Path 2100" d="M333.71,102.1s.06.05,0,.07c-1.81,1-2.58,2.94-3,4.88a1.54,1.54,0,0,1,2.24-.73c.05,0,0,.11,0,.11a1.72,1.72,0,0,0-1.8.85,8.179,8.179,0,0,0-.7,1.64c-.06.19-.39.14-.35-.07h0C329.68,106.37,331.12,102.7,333.71,102.1Z" fill="#263238"/>
      <path id="Path_2101" data-name="Path 2101" d="M317.47,127.16l3.77,9.26,11.44-11.7,3.26,3.74S324.76,147,324.69,146.19l-3.82-7.94-5.47,5.54.41-13.89Z" fill="#ebebeb"/>
      <path id="Path_2102" data-name="Path 2102" d="M315.21,136.92c.15-2.29.23-4.61.48-6.89a.08.08,0,0,1,.16,0c.46,2.21-.14,11-.13,13.07h0c.23-.24,5.07-4.87,5.12-4.8.83,1.26,3.63,7,3.82,7.57,1.77-2.95,8.54-13.67,10.64-16.46a.08.08,0,0,1,.13.08C333.9,132.55,324.94,147,324.8,147a91.477,91.477,0,0,1-4-8.4c-.82,1-5.71,6.25-5.73,5.91A72.915,72.915,0,0,1,315.21,136.92Z" fill="#263238"/>
      <path id="Path_2103" data-name="Path 2103" d="M188.3,136.7c12.58,24.83,25.36,84.56,26.55,92.55.81,5.43-27.74,10.34-27.74,6.58,0-4.82-5.76-61.2-5.21-83.48C182.2,140.06,185.7,131.57,188.3,136.7Z" fill="#eb9481"/>
      <path id="Path_2104" data-name="Path 2104" d="M187,233.45c-.46,3.27.63,14.6,2.77,23,1,4.1,5.28,15.55,8.49,15s2.26-4,2.26-4,2.52,4.56,5.69,3.71,1.54-6.19,1.54-6.19,2.92,4.51,6,3.43.55-6.17.55-6.17,2.49,4.25,4.67,2.28c2.63-2.37-2.83-9.67-3.75-14.26-.21-1-2.76-21.42-2.76-21.42Z" fill="#eb9481"/>
      <path id="Path_2105" data-name="Path 2105" d="M214.34,262.16c-4-5.38-4.82-8.43-5.32-15a.11.11,0,0,0-.21,0c-.09,6.49.39,10.46,5.28,15.23C214.33,262.6,214.53,262.41,214.34,262.16Z" fill="#263238"/>
      <path id="Path_2106" data-name="Path 2106" d="M207.83,265.26c-3.67-5.95-4.59-9.25-5.63-16.1,0-.1-.18-.09-.17,0,.45,6.81,1,10.76,5.47,16.23C207.7,265.65,208,265.53,207.83,265.26Z" fill="#263238"/>
      <path id="Path_2107" data-name="Path 2107" d="M200.23,267c-3.13-6-4.29-9.59-4.44-16.37a.13.13,0,0,0-.25,0c-.52,6.93.9,11.4,4.5,16.46C200.29,267.38,200.43,267.34,200.23,267Z" fill="#263238"/>
      <path id="Path_2108" data-name="Path 2108" d="M214.67,227.83s4.6,7,5.94,10.57,1.49,18.54-1.75,18.76c-4.18.28-6-8.37-6.3-12.72,0,0-9.68.65-12.3-5.28S214.67,227.83,214.67,227.83Z" fill="#eb9481"/>
      <path id="Path_2109" data-name="Path 2109" d="M217.69,256.85c-4-2.49-4.06-8.23-4.69-12.43a.39.39,0,0,0-.56-.31c-4.07,0-9.82-1.18-12.28-4.7a.1.1,0,1,0-.17.1c2.12,4.14,7.68,5.76,12.14,5.47.58,4.31.89,10.07,5.53,11.91C217.69,256.9,217.71,256.87,217.69,256.85Z" fill="#263238"/>
      <path id="Path_2110" data-name="Path 2110" d="M217.59,226.15l-32.43,5s-5.17-60.21-5.36-80.42,7.07-25.16,14.86-4.49S217.59,226.15,217.59,226.15Z" fill="#ffc727"/>
      <path id="Path_2111" data-name="Path 2111" d="M185,226.08c13.27-3,27.66-4.11,30.16-4.48a.09.09,0,1,1,0,.18c-2.46.24-18.78,3.31-30.16,4.5C184.91,226.29,184.9,226.1,185,226.08Z" fill="#263238"/>
      <path id="Path_2112" data-name="Path 2112" d="M256.88,446.62c-2.25.73-68.2-.26-70.62-1.85-.29-.18-.33-6.14-.25-14.31l-3.21-48.53,41.73.12,3.3,42s9.36,4.32,17.08,8.1h0a92.643,92.643,0,0,1,9.83,5.2C257.23,439.43,259.13,445.9,256.88,446.62Z" fill="#eb9481"/>
      <path id="Path_2113" data-name="Path 2113" d="M256.88,446.62c-2.25.73-68.2-.26-70.62-1.85-.29-.18-.33-6.14-.25-14.31,16.29,3.63,59.73,9.51,61,6.1.51-1.37-.53-2.92-2.08-4.35a92.644,92.644,0,0,1,9.83,5.2C257.23,439.43,259.13,445.9,256.88,446.62Z" fill="#263238"/>
      <path id="Path_2114" data-name="Path 2114" d="M165.18,205.3S177,330.72,177.26,332.24c0,.2.13,2.52.24,6.29.66,20.69,2.28,85.21,2.28,85.21h49.58s-3.23-76.42-5.09-94.24c-2.37-22.75-16.94-124.2-16.94-124.2Z" fill="#053e7c"/>
      <path id="Path_2115" data-name="Path 2115" d="M183.17,336.48q-2.29-39.06-6.89-78c-1.74-14.6-3.84-29.15-5.92-43.71,0-.13-.22-.12-.2,0,3.84,25.91,6.55,52,8.89,78.11s4,52.16,5,78.3c.61,14.8,1.07,29.62,1.54,44.43a.28.28,0,0,0,.55,0C185.48,389.25,184.72,362.85,183.17,336.48Z" fill="#263238"/>
      <path id="Path_2116" data-name="Path 2116" d="M226.23,415.75c-1.3-.17-2.71-.12-4-.16-1.48,0-3-.07-4.46-.12-2.87-.11-5.75-.19-8.62-.23-5.79-.1-11.59-.06-17.37.12l-4.78.17c-1.7.06-3.4.22-5.1.21-.12,0-.12.15,0,.15,2.91,0,5.86.25,8.78.36s5.74.15,8.61.19c5.79.08,11.6,0,17.38-.18,1.59-.06,3.18-.08,4.77-.13L224,416c.76,0,1.51,0,2.27-.07C226.37,415.93,226.36,415.77,226.23,415.75Z" fill="#263238"/>
      <path id="Path_2117" data-name="Path 2117" d="M201,205.3,178.35,368.66c-.32-12.18-.64-23.44-.85-30.13-.11-3.77-.2-6.09-.24-6.29-.28-1.52-12.08-126.94-12.08-126.94Z" fill="#042850"/>
      <path id="Path_2118" data-name="Path 2118" d="M173.82,455.32c-2.36-.19-62.86-26.47-64.48-28.87-.2-.27,2-5.79,5.27-13.3l13.34-47,38.6,15.49-10.89,41.73s7,7.59,12.66,14h0a93.8,93.8,0,0,1,7.08,8.59C176.91,448.81,176.17,455.52,173.82,455.32Z" fill="#eb9481"/>
      <path id="Path_2119" data-name="Path 2119" d="M173.82,455.32c-2.36-.19-62.86-26.47-64.48-28.87-.2-.27,2-5.79,5.27-13.3,13.65,9.62,51.48,31.74,54,29.08,1-1.06.63-2.9-.25-4.82a93.794,93.794,0,0,1,7.08,8.59C176.91,448.81,176.17,455.52,173.82,455.32Z" fill="#263238"/>
      <path id="Path_2120" data-name="Path 2120" d="M110.27,408.31l48.37,15S182.26,340.46,184.07,321c1.79-19.29,3.52-58.7,4.29-87.29,0,0,8.08-4.78,10.13-7.39s3.89-12,7.93-21H147.24c-14.14,27.47-3.5,39.69-3.5,45.68,0,28.92-4.37,67.31-5.76,73C135.08,335.86,110.27,408.31,110.27,408.31Z" fill="#053e7c"/>
      <path id="Path_2121" data-name="Path 2121" d="M158.53,412.73c-1.21-.5-2.58-.81-3.84-1.2-1.43-.43-2.87-.83-4.29-1.27-2.74-.85-5.5-1.66-8.26-2.44q-8.35-2.38-16.82-4.38l-4.66-1.07c-1.65-.38-3.34-.67-5-1.11-.13,0-.16.11,0,.15,2.82.74,5.6,1.75,8.39,2.61s5.51,1.63,8.27,2.42q8.355,2.355,16.83,4.31c1.56.35,3.1.74,4.65,1.11l2.49.55c.74.17,1.46.41,2.21.52a.1.1,0,1,0,.03-.2Z" fill="#263238"/>
      <path id="Path_2122" data-name="Path 2122" d="M199.87,225.67a44.74,44.74,0,0,0-8,4.74c-2.65,1.82-5.09,3.91-7.64,5.86-.1.08,0,.24.1.17,2.69-1.72,5.51-3.23,8.17-5a51.259,51.259,0,0,0,7.52-5.56C200.09,225.8,200,225.62,199.87,225.67Z" fill="#263238"/>
      <path id="Path_2123" data-name="Path 2123" d="M200.24,209c-.34,1.84-.79,3.67-1.19,5.5s-.65,3.47-1.1,5.17a8.8,8.8,0,0,1-2.41,4.33c-.67.63-1.42,1.18-2.14,1.76-.38.31-.8.6-1.2.92.05-.25.09-.49.13-.75.13-.69.25-1.39.36-2.09.26-1.55.51-3.11.75-4.66.47-3.06.9-6.15,1.54-9.18a.1.1,0,0,0-.2-.05c-.76,3-1.6,6-2.26,9-.33,1.48-1.49,8.8-1.54,9.32s-.1,1.07-.12,1.61a7,7,0,0,0,0,1.65c0,.13.2.11.25,0h0a6.49,6.49,0,0,0,.47-1.59c.13-.52.25-1.05.34-1.58a4.222,4.222,0,0,1,.09-.59c.72-.44,1.39-1,2.07-1.5a26.894,26.894,0,0,0,2.15-1.62,8.24,8.24,0,0,0,2.63-4.11,30.339,30.339,0,0,0,.87-5.27c.23-2.08.4-4.17.69-6.24C200.45,209,200.26,208.9,200.24,209Z" fill="#263238"/>
      <path id="Path_2124" data-name="Path 2124" d="M199,129.26c-.95,11.75-2.13,23.83-4.87,35.31-2.14,8.94-7,15.89-16.7,16.82-9,.86-21.45-1-28.05-7.81-3.08-3.17-3.75-7.15-2.94-11.39,1.13-5.89,10.3-37.77,13.09-47.73,1.7-6.06,3.38-12.21,6.14-17.91,5.78-12,12-11,12.86-11.15.81-.38,5.85-1.84,12.33,1.24A13.35,13.35,0,0,1,198,94.9C201.44,105.62,199.92,118.26,199,129.26Z" fill="#263238"/>
      <path id="Path_2125" data-name="Path 2125" d="M176.39,86.87c-7.93,2.46-10.83,10.36-13.63,17.4-3.9,9.81-7.64,19.69-10.9,29.74q-2.34,7.245-4.33,14.6c-1.25,4.7-2.88,9.67-3.22,14.54-.56,8,6.24,12.68,13.16,14.79a.274.274,0,1,0,.17-.52c-3.92-1.35-7.87-3-10.46-6.43-3.33-4.36-2.19-9.3-1.06-14.22,1.94-8.38,4.35-16.63,7-24.79s5.71-16.24,8.83-24.25c3-7.63,5.77-17.83,14.42-20.73C176.5,87,176.47,86.84,176.39,86.87Z" fill="#263238"/>
      <path id="Path_2126" data-name="Path 2126" d="M200.21,103.89c-.58-6.29-2.94-12.67-9.11-15.32h0c7.94,3.78,8.72,13.13,8.78,20.85q.1,12.21-.69,24.38c-.5,7.81-1.18,15.66-2.39,23.39-1.31,8.34-3.9,16-9.78,22.19a.135.135,0,1,0,.18.2c5.63-4.91,8.3-12.37,9.67-19.51a218.659,218.659,0,0,0,3.07-28.67C200.46,122.35,201.05,113,200.21,103.89Z" fill="#263238"/>
      <path id="Path_2127" data-name="Path 2127" d="M175.92,130.86c.38,1,6.21,7.1,10.93,6.27,1.53-.28.4-8.73.4-8.73l.06-.64.82-9L177,113.5l-1.59-.68s-.07,2.48-.11,5.56v.44a4.378,4.378,0,0,0,0,.51c0,.46,0,.93,0,1.4v2.19A58.592,58.592,0,0,0,175.92,130.86Z" fill="#eb9481"/>
      <path id="Path_2128" data-name="Path 2128" d="M175.3,118.38a18.13,18.13,0,0,0,12,9.38l.82-9L177,113.5l-1.59-.68S175.34,115.3,175.3,118.38Z" fill="#263238"/>
      <path id="Path_2129" data-name="Path 2129" d="M199.57,105.51c1.26,15.8-8.06,18.34-11.47,18.61-3.1.24-13.67.68-16.55-14.92s4.07-21.2,11.12-22.1S198.32,89.7,199.57,105.51Z" fill="#eb9481"/>
      <path id="Path_2130" data-name="Path 2130" d="M196.91,102.15a9.66,9.66,0,0,1-1.07-.22,1.79,1.79,0,0,1-1.06-.43.57.57,0,0,1,0-.69,1.41,1.41,0,0,1,1.37-.34,2,2,0,0,1,1.3.72.6.6,0,0,1-.54.96Z" fill="#263238"/>
      <path id="Path_2131" data-name="Path 2131" d="M186.39,102.37c.37-.05.7-.15,1.07-.23a1.79,1.79,0,0,0,1-.45.56.56,0,0,0,0-.69,1.4,1.4,0,0,0-1.38-.32,2.07,2.07,0,0,0-1.28.74.6.6,0,0,0,.59.95Z" fill="#263238"/>
      <path id="Path_2132" data-name="Path 2132" d="M188.86,106.36a.082.082,0,0,0-.08.09c.07,1.08,0,2.33-1,2.72v.06C189,109,189.1,107.37,188.86,106.36Z" fill="#263238"/>
      <path id="Path_2133" data-name="Path 2133" d="M187.86,105.26c-1.74-.07-1.76,3.41-.15,3.48S189.32,105.32,187.86,105.26Z" fill="#263238"/>
      <path id="Path_2134" data-name="Path 2134" d="M187.18,105.44c-.31.2-.61.54-1,.58s-.74-.33-1-.68h-.06c0,.66.23,1.35,1,1.45s1.13-.49,1.3-1.16C187.41,105.55,187.3,105.36,187.18,105.44Z" fill="#263238"/>
      <path id="Path_2135" data-name="Path 2135" d="M194.86,106.12a.082.082,0,0,1,.08.09c-.05,1.08.07,2.33,1.05,2.7v.06C194.79,108.79,194.64,107.13,194.86,106.12Z" fill="#263238"/>
      <path id="Path_2136" data-name="Path 2136" d="M195.84,105c1.73-.1,1.82,3.38.21,3.48S194.38,105.09,195.84,105Z" fill="#263238"/>
      <path id="Path_2137" data-name="Path 2137" d="M196.57,105.22c.28.17.56.5.89.52s.65-.37.89-.74h.05c0,.66-.17,1.36-.8,1.5s-1-.43-1.2-1.08C196.37,105.33,196.46,105.14,196.57,105.22Z" fill="#263238"/>
      <path id="Path_2138" data-name="Path 2138" d="M188.78,114.9c.25.27.49.63.88.68a3,3,0,0,0,1.17-.21v.06a1.46,1.46,0,0,1-1.4.51,1.13,1.13,0,0,1-.8-1C188.67,114.88,188.75,114.86,188.78,114.9Z" fill="#263238"/>
      <path id="Path_2139" data-name="Path 2139" d="M193.28,111s.23,1.61.23,2.37c0,.08-.18.11-.44.13h0a3.61,3.61,0,0,1-3.52-1.33.081.081,0,0,1,.12-.11,5.4,5.4,0,0,0,3.3.93c.05-.21-.49-2.75-.37-2.76a6.52,6.52,0,0,1,1.73.38c-.38-3.37-1.3-6.65-1.64-10a.1.1,0,0,1,.2,0,55.139,55.139,0,0,1,2.23,10.71C195.15,111.66,193.58,111.1,193.28,111Z" fill="#263238"/>
      <path id="Path_2140" data-name="Path 2140" d="M194.5,107.17c-.24-2.58.95-4.8,2.65-5s3.29,1.8,3.53,4.38-1,4.8-2.65,5S194.74,109.75,194.5,107.17Zm.63-.06c.21,2.23,1.48,3.94,2.84,3.82s2.3-2.05,2.09-4.28-1.49-3.94-2.85-3.82S194.92,104.88,195.13,107.11Z" fill="#263238"/>
      <path id="Path_2141" data-name="Path 2141" d="M182.75,108.28a4.39,4.39,0,1,1,4.81,4.26,4.56,4.56,0,0,1-4.81-4.26Zm.63-.06a3.76,3.76,0,1,0,3.36-4.4,3.92,3.92,0,0,0-3.36,4.4Z" fill="#263238"/>
      <path id="Path_2142" data-name="Path 2142" d="M191.23,107.05c2.26-1,3.39-.37,3.4-.36l.34-.53c-.05,0-1.39-.88-4,.32Z" fill="#263238"/>
      <path id="Path_2143" data-name="Path 2143" d="M183,107.84l.06-.63c-.42,0-10.12-.9-11.16-.86s-3.51,1.71-3.78,1.9l.36.52a11.67,11.67,0,0,1,3.4-1.78H172C172.76,107,179.55,107.53,183,107.84Z" fill="#263238"/>
      <path id="Path_2144" data-name="Path 2144" d="M172,108.07c1.71-.1,6.17-4.83,6.31-13.11,0,0-.64,7.43-1.19,8.52s2.49-2.66,2.69-9.33a27.27,27.27,0,0,0,6.86,3.55c3.15.88,5.08.85,5.31.62s-4.42-1.69-5.68-3.13c0,0,8.4,3.89,12.26,4.19.45,0,1-9.17-5-13.07s-15.45.32-18,2.78c0,0-3,.42-6.23,4.85S170.16,108.18,172,108.07Z" fill="#263238"/>
      <path id="Path_2145" data-name="Path 2145" d="M174.16,110.22s-3.43-5-5.68-3.76.29,8.41,2.92,9.41a2.69,2.69,0,0,0,3.61-1.41Z" fill="#eb9481"/>
      <path id="Path_2146" data-name="Path 2146" d="M169.26,108.5v.07c1.84.77,2.8,2.49,3.47,4.27a1.47,1.47,0,0,0-2.21-.42s0,.11.05.1a1.64,1.64,0,0,1,1.81.59,8,8,0,0,1,.86,1.47c.08.17.38.08.32-.11h0C173.6,112.07,171.79,108.76,169.26,108.5Z" fill="#263238"/>
      <path id="Path_2147" data-name="Path 2147" d="M173.61,115.51a1.16,1.16,0,1,1-1.16-1.15,1.16,1.16,0,0,1,1.16,1.15Z" fill="#fff"/>
      <path id="Path_2148" data-name="Path 2148" d="M209,210.65s-53.26.79-66.48-.14c0,0,10.78-61.1,25-76.54a21.666,21.666,0,0,1,1.68-1.65c.87-.73.75-6.56,1.16-7s17.69,1.83,17.91,2.25,1.11,5.92,1.11,5.92c3.92,5,16.53,22.28,18,29.41s-3.16,15-3.16,15Z" fill="#ffc727"/>
      <path id="Path_2149" data-name="Path 2149" d="M163.45,144.87c-3.15,15.18-1.28,48,6,54,12,9.82,40.84,12.69,48.89,13.64,3.47.41,10.38-22.3,8-25.23s-37.83-7.49-39.52-9c-1.17-1.08-6.68-20.91-11.43-32.09C169,131.06,164.6,139.27,163.45,144.87Z" fill="#eb9481"/>
      <path id="Path_2150" data-name="Path 2150" d="M220.34,185.45s10.64-.11,17.6.15c3.89.14,10.52,1,13.33,2.4,4.19,2.11,20.39,13.61,17.68,17.6-2.45,3.61-7.27-1.14-7.27-1.14s5.76,4.69,2.23,7.53-9.24-3.94-9.24-3.94,6.46,4.56,2.4,7.22c-3.52,2.32-10.91-4.8-10.91-4.8s7.31,4,3.93,6.77c-3.73,3-16.15-6.28-16.15-6.28-8.9,2-14.51,2-21.05.93C211.69,211.69,220.34,185.45,220.34,185.45Z" fill="#eb9481"/>
      <path id="Path_2151" data-name="Path 2151" d="M256.45,209.63,255,208.1a35.331,35.331,0,0,0-2.86-2.88c-1-.86-2-1.68-3.1-2.46s-2.34-1.56-3.44-2.41c-.09-.07-.19.06-.09.12a40.132,40.132,0,0,1,3.14,2.69c1,.9,2,1.82,3,2.73s2,1.72,3,2.59c.49.43,1,.88,1.45,1.33a11.066,11.066,0,0,0,1.39,1.27c.05,0,.11,0,.08-.08A8.29,8.29,0,0,0,256.45,209.63Z" fill="#263238"/>
      <path id="Path_2152" data-name="Path 2152" d="M262.86,205.46a54.2,54.2,0,0,0-5.2-5.46,37.42,37.42,0,0,0-6.11-4.45c-.08,0-.16.06-.1.12,1.88,1.69,3.79,3.35,5.7,5,.93.81,5.05,4.63,5.53,5C262.79,205.73,262.93,205.57,262.86,205.46Z" fill="#263238"/>
      <path id="Path_2153" data-name="Path 2153" d="M250.52,213.71a55.064,55.064,0,0,0-5-5.05,48.881,48.881,0,0,0-6.15-3.86c-.08,0-.16.08-.09.13,1.94,1.44,3.9,2.83,5.77,4.36.92.75,4.38,3.93,5.32,4.56C250.47,213.91,250.58,213.79,250.52,213.71Z" fill="#263238"/>
      <path id="Path_2154" data-name="Path 2154" d="M210.36,213.45l12.69-29.59s-34.76-5.75-35.83-6.45-7.41-23.78-11.48-32.84-11.06-14.38-13.76,5.07,1.21,43.2,5.12,48.14C171.84,203.76,190.61,211.33,210.36,213.45Z" fill="#ffc727"/>
      <path id="Path_2155" data-name="Path 2155" d="M192.5,209.71c-5.2-1.41-10.27-3.87-15.24-6-4.27-1.79-8.63-4-11-8.19a23.57,23.57,0,0,1-2.29-6.79c-.55-2.64-1-5.31-1.38-8q-.69-4.6-1.24-9.22c-.18-1.58-.36-3.16-.52-4.74s-.45-3.16-.51-4.75a.08.08,0,1,0-.16,0c.11,1.46,0,2.93.12,4.4,0,1,.12,1.92.19,2.88l-.28-.61a11.079,11.079,0,0,1-.7-2.18c0-.09-.17-.05-.15,0,.18.75.36,1.51.57,2.25q.15.54.36,1.08a7.06,7.06,0,0,0,.29.71q.36,4.31.93,8.58c.37,2.76.8,5.5,1.29,8.24a31.49,31.49,0,0,0,1.92,7.07,15.17,15.17,0,0,0,4.06,5.57,26.729,26.729,0,0,0,6,3.72,106.164,106.164,0,0,0,15.07,5.62C196,211.29,197.88,211.16,192.5,209.71Z" fill="#263238"/>
      <path id="Path_2156" data-name="Path 2156" d="M205.55,180.78c-1.28-.17-16.41-3.35-17-3.52a1.78,1.78,0,0,1-1.21-1.28c-.47-1.22-.88-2.47-1.32-3.7q-1.14-3.18-2.32-6.33a12.018,12.018,0,0,0-.14-1.41c-.05-.41-.15-1.12-.24-1.68-.2-1.21-.56-2.4-.71-3.61,0-.12-.19-.08-.16,0a17.881,17.881,0,0,1,.54,3.64c.05.48.08,1,.11,1.45-.46-1.23-.93-2.46-1.42-3.68-.57-1.42-1.22-2.85-1.68-4.31,0-.1-.18-.05-.15,0,.52,1.31.89,2.7,1.3,4s.85,2.7,1.29,4.05c.86,2.65,1.77,5.28,2.69,7.92.44,1.27.87,2.56,1.34,3.82a2.72,2.72,0,0,0,2,1.93c2.63.71,15.49,2.84,17.05,2.9C205.68,181.07,205.72,180.8,205.55,180.78Z" fill="#263238"/>
      <path id="Path_2157" data-name="Path 2157" d="M216.62,184.32c-2,4.25-4,8.47-5.81,12.81A132.725,132.725,0,0,0,206,210.2a.081.081,0,0,0,.15.06c2-4.17,3.75-8.5,5.52-12.79s3.38-8.7,5.17-13C216.93,184.29,216.7,184.15,216.62,184.32Z" fill="#263238"/>
      <path id="Path_2158" data-name="Path 2158" d="M254,180.94c-1.53.86-10.29-1.56-13.84,1.1-2.35,1.76-4.65,6-5.15,11.53-.51,5.71,4,5.42,5.67,3a70.614,70.614,0,0,0,5.31-10,37.674,37.674,0,0,1,4.74,1.27Z" fill="#ad6359"/>
      <path id="Path_2159" data-name="Path 2159" d="M243.26,200.87c-2.71-2.84-16.25,7.57-12,12.3S246.32,204.09,243.26,200.87Z" fill="#ad6359"/>
      <path id="Path_2160" data-name="Path 2160" d="M247.78,204.94c-2.71-2.84-16.25,7.57-12,12.3S250.84,208.16,247.78,204.94Z" fill="#ad6359"/>
      <path id="Path_2161" data-name="Path 2161" d="M251.34,206.38c-2.85-2.21-13.71,9.14-9.16,12.84S254.57,208.88,251.34,206.38Z" fill="#ad6359"/>
      <path id="Path_2162" data-name="Path 2162" d="M255.21,207c-3.27-1.25-10.16,12.35-4.89,14.5S258.92,208.37,255.21,207Z" fill="#ad6359"/>
      <path id="Path_2163" data-name="Path 2163" d="M242.86,205.55a16.368,16.368,0,0,0-2.12,1.69,28.5,28.5,0,0,0-2.11,2,24.145,24.145,0,0,0-1.81,2.12c-.59.8-1.08,1.67-1.68,2.45a.08.08,0,1,0,.12.09,20.5,20.5,0,0,1,1.93-2.13c.65-.68,1.26-1.39,1.91-2.08s1.23-1.36,1.87-2,1.36-1.3,2-2C243,205.6,242.93,205.51,242.86,205.55Z" fill="#263238"/>
      <path id="Path_2164" data-name="Path 2164" d="M248.24,206.82c-.58.89-2.61,4.34-3.23,5.21s-1.27,1.74-1.93,2.59-1.3,1.78-2.05,2.58c-.06.07.05.18.12.11.75-.8,1.57-1.53,2.28-2.37s1.36-1.69,2-2.58a51.141,51.141,0,0,0,3-5.48A.108.108,0,0,0,248.24,206.82Z" fill="#263238"/>
      <path id="Path_2165" data-name="Path 2165" d="M252,208.76c-.6,1.32-1.12,2.69-1.73,4-.3.65-.61,1.3-.91,2l-.42.95a6.371,6.371,0,0,1-.5,1.09c-.06.08.1.17.14.06a7.827,7.827,0,0,1,.7-1.13c.17-.3.35-.6.51-.9q.51-1,.93-1.95a28.936,28.936,0,0,0,1.46-4,.108.108,0,1,0-.18-.12Z" fill="#263238"/>
    </g>
  </g>
</svg>
