<svg xmlns="http://www.w3.org/2000/svg" width="288" height="232.801" viewBox="0 0 288 232.801">
  <g id="Group_3165" data-name="Group 3165" transform="translate(-288.5 -432.699)">
    <path id="Path_2038" data-name="Path 2038" d="M0,0H288" transform="translate(288.5 665)" fill="none" stroke="#263238" stroke-width="1"/>
    <g id="freepik--character-4--inject-143" transform="translate(345.497 432.699)">
      <path id="Path_683" data-name="Path 683" d="M545,334.46s1.2,13.5,2.968,33.086h0c.057.567.1,1.134.161,1.711.87,9.595,1.89,20.523,2.9,31.971H612.4c-4.405-34.4-8.205-64.026-8.508-66.55v-.18Z" transform="translate(-491.748 -168.927)" fill="#37474f"/>
      <path id="Path_684" data-name="Path 684" d="M600.611,342.634q.586,7.09,1.191,14.18h0c.113,1.371.246,2.732.369,4.1h0q1.768,20.353,3.781,40.648h.889c-1.5-13.943-2.893-27.9-4.311-41.849h0l-.454-4.547h0L600.8,342.634C600.8,342.492,600.592,342.492,600.611,342.634Z" transform="translate(-538.757 -169.368)" fill="#263238"/>
      <path id="Path_685" data-name="Path 685" d="M563,334.46s2.836,15.834,6.731,38.02h0c.066.359.132.709.2,1.087h0c1.5,8.508,3.167,17.866,4.887,27.612h42.756l.945-6.428h0l.189-1.267v-.331l.709-4.727h0l.284-1.777,8.016-52.191Z" transform="translate(-524.079 -168.927)" fill="#263238"/>
      <path id="Path_686" data-name="Path 686" d="M555.577,401.186h64.688v-1l.945-.529c3.412-1.891,6.409-3.309,8.877-4.405l1.219-.548c1.116-.482,2.118-.9,2.949-1.219,2.137-.851,3.328-1.22,3.328-1.22l.2-.529c8.413-21.421,13.48-54.063,13.953-57.1V334.4H565.947s-17.659,32.2-9.8,59.555C556.947,396.28,555.813,398.757,555.577,401.186Z" transform="translate(-539.712 -168.923)" fill="#37474f"/>
      <path id="Path_687" data-name="Path 687" d="M585.7,394a129.163,129.163,0,0,0-20.315,9.453.228.228,0,0,0,.189.416c6.844-2.93,13.82-5.747,20.494-9.056A.454.454,0,0,0,585.7,394Z" transform="translate(-484.759 -172.182)" fill="#263238"/>
      <path id="Path_688" data-name="Path 688" d="M577.043,344.3c0-.236-.435-.284-.425,0,0,8.12-.463,15.267-1.153,22.858-.321,3.526-3.148,23.009-9.264,21.591-1.021-.246-1.55-1.248-1.711-2.789-.189-1.891.51-4.131.813-5.974.681-4.084,1.229-8.167,1.578-12.289a111.774,111.774,0,0,0-.255-23.047.2.2,0,0,0-.388,0c0,10.644-.274,21.27-1.89,31.819-.766,5.067-3.318,12.7,1.985,13.471s8.886-11.987,9.548-15.475C577.743,364.7,577.818,354.168,577.043,344.3Z" transform="translate(-473.926 -169.454)" fill="#263238"/>
      <path id="Path_689" data-name="Path 689" d="M575.416,391.826a33.261,33.261,0,0,0-1.371,4.036,9.168,9.168,0,0,0-.577,3.318.236.236,0,0,0,.425.094,11.522,11.522,0,0,0,1.418-3.233c.463-1.248.945-2.486,1.389-3.781a.681.681,0,0,0-1.285-.435Z" transform="translate(-482.981 -172.041)" fill="#263238"/>
      <path id="Path_690" data-name="Path 690" d="M628.863,350.9a10.748,10.748,0,0,0-.255-2.524.132.132,0,0,0-.246,0,10.032,10.032,0,0,0-.293,2.193c-.085.832-.189,1.673-.284,2.505a35.921,35.921,0,0,1-.945,5.1,18.05,18.05,0,0,1-4.661,8.385,24.5,24.5,0,0,1-7.893,5.2c-3.28,1.39-6.74,1.891-10.134,2.9a.132.132,0,0,0,.047.255,29.181,29.181,0,0,0,10.966-2.165A23.47,23.47,0,0,0,623.4,367.5a18.415,18.415,0,0,0,4.8-8.631,25.758,25.758,0,0,0,.652-5.1,24.135,24.135,0,0,0,.009-2.864Z" transform="translate(-564.088 -169.683)" fill="#263238"/>
      <path id="Path_691" data-name="Path 691" d="M549.84,363.394l39.76.794,50.215,1.03,9.935.2c-2.2-17.138-3.781-29.182-3.942-30.751v-.236H560.021A112.665,112.665,0,0,0,549.84,363.394Z" transform="translate(-533.673 -168.925)" fill="#263238"/>
      <path id="Path_692" data-name="Path 692" d="M619.262,222.176c2.694,18.235,5.152,37.047,5.01,55.5-.1,14.378-5.02,26.658-19.511,31.507-13.442,4.49-33.029,6.031-45.479-2.013-5.8-3.781-8.234-9.576-8.508-16.316-.35-9.378,2.382-61.171,3.129-77.317.444-9.831.851-19.795,3.035-29.456,4.594-20.268,14.35-21,15.664-21.515,1.1-.851,8.272-4.868,19.218-2.448a20.853,20.853,0,0,1,13.669,10.1C614.583,185.318,616.729,205.094,619.262,222.176Z" transform="translate(-509.056 -159.35)" fill="#263238"/>
      <path id="Path_693" data-name="Path 693" d="M627.037,165.929c-11.211,6.551-12.837,19.6-14.624,31.318-2.5,16.316-4.727,32.689-6.126,49.156-.68,7.912-1.191,15.834-1.456,23.765-.255,7.563-.945,15.74.208,23.283,1.985,12.469,13.972,17.12,25.259,17.895a.427.427,0,1,0,.085-.851c-6.447-.681-13.074-1.843-18.216-6.116-6.617-5.473-6.617-13.4-6.617-21.288,0-13.442.766-26.866,2-40.251s2.978-26.733,4.906-40.043c1.89-12.667,2.514-29.191,14.662-36.659C627.245,166.052,627.16,165.863,627.037,165.929Z" transform="translate(-566.26 -159.709)" fill="#263238"/>
      <path id="Path_694" data-name="Path 694" d="M567.225,183.325c-3.1-9.387-8.933-18.273-19.275-20.135h0c13.424,2.968,17.9,16.931,20.731,28.681q4.453,18.547,7.563,37.378c1.976,12.072,3.715,24.266,4.594,36.47.945,13.168-.312,25.7-7.09,37.245a.22.22,0,1,0,.359.255c6.844-9.453,8.271-21.742,7.855-33.133-.548-14.964-2.9-30.023-5.426-44.761C574.107,211.354,571.7,196.834,567.225,183.325Z" transform="translate(-464.165 -159.56)" fill="#263238"/>
      <path id="Path_695" data-name="Path 695" d="M498.918,242.313c2.628,10.767,31.2,69.055,30.95,72.7-.057.851-17.262,12.412-17.687,13.773-1.721,5.54,26.611,29.012,32.8,30.411,18.226,4.1,34.107,3.252,33.814-11.722-.51-23.463-41.754-81.562-62.882-102.094C502,231.877,496.318,231.688,498.918,242.313Z" transform="translate(-414.008 -163.474)" fill="#ffc4c0"/>
      <path id="Path_696" data-name="Path 696" d="M551.716,361.944,518.2,319.906s10.011-3.611,10.228-5.955-24.011-52.2-29.3-66.853-1.181-17.706,14.53-5.124,74.018,94.049,65.378,112.19C573.118,366.67,551.716,361.944,551.716,361.944Z" transform="translate(-413.802 -163.438)" fill="#37474f"/>
      <path id="Path_697" data-name="Path 697" d="M510.363,318.86a23.543,23.543,0,0,1,4.3,1.6c1.409.614,2.836,1.248,4.188,1.891,2.732,1.267,5.464,2.581,8.1,4.036s5.218,3.006,7.761,4.594L536.5,332.1l.719.236c1.012.359,2,.737,2.978,1.191a45.869,45.869,0,0,1,5.426,2.987c.123.076,0,.265-.123.2a41.014,41.014,0,0,0-5.672-2.656c-.255-.095-.52-.18-.775-.284,1.021.69,2.023,1.39,2.968,2.155a76.731,76.731,0,0,1,7.26,6.428c.1.1-.066.265-.17.161-4.15-4.027-9.387-6.929-14.388-9.756-5.19-2.93-10.228-6.1-15.427-9-1.484-.832-3-1.626-4.519-2.382a47.727,47.727,0,0,1-4.566-2.269C510.079,318.992,510.2,318.822,510.363,318.86Z" transform="translate(-395.722 -168.073)" fill="#263238"/>
      <path id="Path_698" data-name="Path 698" d="M639.264,306.736l5.029,37.576-93.473.652S565,268.158,584.691,242.776c9.859-12.686,23.056-12.355,32.4-2.656,2.033,2.117,22.688,31.555,26.27,43.711C646.533,294.551,639.264,306.736,639.264,306.736Z" transform="translate(-529.142 -163.38)" fill="#ebebeb"/>
      <path id="Path_699" data-name="Path 699" d="M568.029,245.18q3.044,7.77,6,15.56c1.966,5.2,3.866,10.4,5.672,15.673s3.668,10.587,2.883,16.07a34.88,34.88,0,0,1-1.891,8,43.936,43.936,0,0,1-3.45,7.477l-.066.132v.132l2.505,21q1.276,10.493,2.637,20.986-1.012-10.54-2.1-21.052l-2.231-21.033-.066.265a45.142,45.142,0,0,0,3.582-7.619,36.694,36.694,0,0,0,1.976-8.186,22.842,22.842,0,0,0-.6-8.432c-.69-2.713-1.541-5.369-2.43-8.007-1.777-5.284-3.838-10.455-5.908-15.617S570.288,250.266,568.029,245.18Z" transform="translate(-484.754 -164.044)" fill="#263238"/>
      <path id="Path_700" data-name="Path 700" d="M573.376,266.655a1.371,1.371,0,0,1-1.011,1.588,1.258,1.258,0,0,1-1.437-1.115,1.38,1.38,0,0,1,1.012-1.588,1.257,1.257,0,0,1,1.437,1.115Z" transform="translate(-477.235 -165.157)" fill="#263238"/>
      <path id="Path_701" data-name="Path 701" d="M567.445,282.755a1.361,1.361,0,0,1-1.012,1.588A1.258,1.258,0,0,1,565,283.227a1.371,1.371,0,0,1,1.021-1.588,1.248,1.248,0,0,1,1.427,1.115Z" transform="translate(-465.698 -166.037)" fill="#263238"/>
      <path id="Path_702" data-name="Path 702" d="M566.719,299.175a1.38,1.38,0,0,1-1.012,1.588,1.257,1.257,0,0,1-1.437-1.115,1.371,1.371,0,0,1,1.012-1.588,1.257,1.257,0,0,1,1.437,1.115Z" transform="translate(-464.282 -166.935)" fill="#263238"/>
      <path id="Path_703" data-name="Path 703" d="M571.279,312.765a1.371,1.371,0,0,1-1.021,1.588,1.248,1.248,0,0,1-1.428-1.115,1.361,1.361,0,0,1,1.012-1.588,1.257,1.257,0,0,1,1.437,1.115Z" transform="translate(-473.153 -167.679)" fill="#263238"/>
      <path id="Path_704" data-name="Path 704" d="M569.505,327.595a1.371,1.371,0,0,1-1.011,1.6,1.257,1.257,0,0,1-1.437-1.115,1.38,1.38,0,0,1,1.012-1.6,1.257,1.257,0,0,1,1.437,1.115Z" transform="translate(-469.706 -168.49)" fill="#263238"/>
      <path id="Path_705" data-name="Path 705" d="M567.889,342.245a1.37,1.37,0,0,1-1.011,1.588,1.257,1.257,0,0,1-1.437-1.116,1.362,1.362,0,0,1,1.012-1.588,1.257,1.257,0,0,1,1.437,1.116Z" transform="translate(-466.558 -169.291)" fill="#263238"/>
      <path id="Path_706" data-name="Path 706" d="M646.191,345.956s-69.461,3.006-98.861-.473c0,0,20.116-84.88,41.528-107.766,9.746-10.4,19.275-8.829,27.338-2.127,2.013,1.673,26.989,33.36,29.1,44.43,1.89,9.756-6.06,20.589-6.06,20.589Z" transform="translate(-527.741 -163.227)" fill="#ebebeb"/>
      <path id="Path_707" data-name="Path 707" d="M577.03,256.694l3.422-8.054,6.5,6.239-1.087,5.691-6.031.662Z" transform="translate(-496.582 -164.233)" fill="#ffc727"/>
      <path id="Path_708" data-name="Path 708" d="M560.24,261.922l1.522,57.692,12.979,25.523,8.489-25.5L566.271,261.26Z" transform="translate(-476.984 -164.924)" fill="#ffc727"/>
      <path id="Path_709" data-name="Path 709" d="M614.4,234.685s10.691,28.756,11.344,36.149-2.666,35.118-2.666,35.118-16.269-29.3-20.211-38.758c-6.135-14.7-7.477-35.194-7.477-35.194s-6.116,2.836-14.18,13.783c-10.72,14.681-30.061,69.887-36.4,100.638l73.158,10.5,7.26-12.024,4.991,12.024,17.346-9.661L638.178,300.7s9.075-9.879,5.265-23.226C639.351,262.94,614.4,234.685,614.4,234.685Z" transform="translate(-526.733 -163.324)" fill="#37474f"/>
      <path id="Path_710" data-name="Path 710" d="M568.079,306.052,578.751,272.8l-7.326-8.81,6.362-1.248S561.14,236.921,559.41,234.86c.407,1.1,10.682,28.87,11.344,36.12S568.249,304.549,568.079,306.052Z" transform="translate(-471.721 -163.48)" fill="#263238"/>
      <path id="Path_711" data-name="Path 711" d="M578.056,266.031,574.9,277.177l26.336,28.747c-.492-.889-16.325-29.418-20.2-38.758C574.9,252.5,573.566,232,573.566,232l-2.836,31.952Z" transform="translate(-504.906 -163.324)" fill="#263238"/>
      <path id="Path_712" data-name="Path 712" d="M557.789,267.955c-1.5-2.259-3.035-4.519-4.623-6.7-.265-.775-.577-1.531-.879-2.3a24.363,24.363,0,0,0-1.626-3.214,27.2,27.2,0,0,0,1.2,3.384,9.462,9.462,0,0,1,.407.945c-1.588-2.165-3.233-4.3-4.935-6.371,3.129,5,6.532,9.812,9.68,14.775a69.067,69.067,0,0,1,4.386,7.563,23.272,23.272,0,0,1,1.068,2.609c.624,2.2,1.815,6.778-.633,13.764a45.485,45.485,0,0,1-2.647,6.91.142.142,0,1,0,.246.142,63.916,63.916,0,0,0,3.176-7,23.371,23.371,0,0,0,1.512-7.279C564.548,278.117,560.955,273.41,557.789,267.955Z" transform="translate(-445.71 -164.51)" fill="#263238"/>
      <path id="Path_713" data-name="Path 713" d="M568.39,310.23c0,3.252.151,6.5.274,9.756s.321,6.494.473,9.737.4,6.494.633,9.737.491,6.485.823,9.718c0-3.252-.151-6.5-.274-9.756s-.322-6.485-.473-9.737-.4-6.485-.633-9.727S568.721,313.472,568.39,310.23Z" transform="translate(-472.051 -167.602)" fill="#263238"/>
      <path id="Path_714" data-name="Path 714" d="M573.14,319.038a2.108,2.108,0,1,0,1.891-2.1A2.108,2.108,0,0,0,573.14,319.038Zm0,0a1.8,1.8,0,0,1,.6-1.323,1.815,1.815,0,0,1,1.323-.425,1.759,1.759,0,1,1-1.891,1.749Z" transform="translate(-483.305 -167.968)" fill="#263238"/>
      <path id="Path_715" data-name="Path 715" d="M572.54,331.778a2.108,2.108,0,1,0,1.891-2.1A2.108,2.108,0,0,0,572.54,331.778Zm0,0a1.8,1.8,0,0,1,.6-1.323,1.815,1.815,0,0,1,1.324-.425,1.758,1.758,0,1,1-1.891,1.749Z" transform="translate(-482.137 -168.665)" fill="#263238"/>
      <path id="Path_716" data-name="Path 716" d="M571.87,344.52a2.108,2.108,0,0,0,3.507,1.579,2.164,2.164,0,0,0,.7-1.579,2.108,2.108,0,1,0-4.207,0Zm0,0a1.767,1.767,0,0,1,.6-1.333,1.815,1.815,0,0,1,1.324-.425,1.768,1.768,0,0,1,0,3.507,1.815,1.815,0,0,1-1.333-.425A1.787,1.787,0,0,1,571.87,344.52Z" transform="translate(-480.824 -169.354)" fill="#263238"/>
      <path id="Path_717" data-name="Path 717" d="M628.942,321.62l-25.769-4.67-.822,3.327,25.987,4.708Z" transform="translate(-562.503 -167.969)" fill="#263238"/>
      <path id="Path_718" data-name="Path 718" d="M577.373,233.511c.416,1.654,8.508,12.289,16.07,11.8,2.467-.161,2.184-13.669,2.184-13.669l.2-1,2.836-14.038-16.6-10.247-2.4-1.352s-.539,3.895-1.153,8.744a6.216,6.216,0,0,1-.085.69c-.029.246-.085.529-.113.785-.1.728-.208,1.465-.293,2.2-.066.567-.132,1.106-.18,1.7s-.113,1.172-.18,1.768A94.283,94.283,0,0,0,577.373,233.511Z" transform="translate(-508.524 -161.847)" fill="#ffc4c0"/>
      <path id="Path_719" data-name="Path 719" d="M577.24,213.744a28.757,28.757,0,0,0,17.271,16.893l2.836-14.038-16.6-10.247-2.4-1.352S577.855,208.895,577.24,213.744Z" transform="translate(-507.171 -161.847)" fill="#263238"/>
      <path id="Path_720" data-name="Path 720" d="M602.636,190.053c4.226,24.786-10.134,30.118-15.484,31.025-4.849.822-21.477,3.006-28.246-21.2s3.422-34.031,14.416-36.489S598.42,165.276,602.636,190.053Z" transform="translate(-493.837 -159.538)" fill="#ffc4c0"/>
      <path id="Path_721" data-name="Path 721" d="M568.842,185.044a15.382,15.382,0,0,1-1.74-.132,2.76,2.76,0,0,1-1.739-.473.945.945,0,0,1-.142-1.078,2.212,2.212,0,0,1,2.1-.8,3.243,3.243,0,0,1,2.184.879.945.945,0,0,1-.662,1.607Z" transform="translate(-468.136 -160.618)" fill="#263238"/>
      <path id="Path_722" data-name="Path 722" d="M581.878,188.364a16.791,16.791,0,0,0,1.635-.577,2.837,2.837,0,0,0,1.56-.945.946.946,0,0,0-.151-1.087,2.212,2.212,0,0,0-2.231-.227,3.3,3.3,0,0,0-1.891,1.418.945.945,0,0,0,1.077,1.418Z" transform="translate(-498.225 -160.771)" fill="#263238"/>
      <path id="Path_723" data-name="Path 723" d="M580.491,194.339c0-.066-.123.1-.113.17.321,1.683.406,3.668-1.04,4.462v.094C581.181,198.508,581.058,195.908,580.491,194.339Z" transform="translate(-492.669 -161.263)" fill="#263238"/>
      <path id="Path_724" data-name="Path 724" d="M581.233,192.72c-2.76.217-2.118,5.672.435,5.5S583.539,192.54,581.233,192.72Z" transform="translate(-495.197 -161.175)" fill="#263238"/>
      <path id="Path_725" data-name="Path 725" d="M585.591,193.158c-.444.369-.851.945-1.418,1.1s-1.238-.369-1.74-.879c0,0-.094,0-.085.076.114,1.059.643,2.089,1.787,2.118s1.673-1,1.815-2.089C585.978,193.28,585.77,193.006,585.591,193.158Z" transform="translate(-500.605 -161.197)" fill="#263238"/>
      <path id="Path_726" data-name="Path 726" d="M566.257,192.229c0-.066.142.066.151.132.123,1.711.567,3.639,2.165,4.036,0,0,.057.1,0,.1C566.663,196.436,566.106,193.9,566.257,192.229Z" transform="translate(-468.018 -161.148)" fill="#263238"/>
      <path id="Path_727" data-name="Path 727" d="M565.988,190.168c2.713-.5,3.526,4.963,1.011,5.426S563.719,190.594,565.988,190.168Z" transform="translate(-466.425 -161.034)" fill="#263238"/>
      <path id="Path_728" data-name="Path 728" d="M563.183,190.329c.473.227.945.69,1.494.652s.945-.709,1.257-1.333c0-.066.085,0,.094,0,.189,1.04,0,2.174-.945,2.524s-1.692-.473-2.1-1.475C562.843,190.556,562.947,190.244,563.183,190.329Z" transform="translate(-462.382 -161.006)" fill="#263238"/>
      <path id="Path_729" data-name="Path 729" d="M572.72,208.109c.444.369.889.9,1.512.9a4.424,4.424,0,0,0,1.806-.558s.114,0,.076.085a2.288,2.288,0,0,1-2.1,1.078,1.806,1.806,0,0,1-1.446-1.409C572.531,208.1,572.663,208.052,572.72,208.109Z" transform="translate(-481.523 -162.016)" fill="#263238"/>
      <path id="Path_730" data-name="Path 730" d="M572.1,199.7s.671,2.5.832,3.687c0,.113-.274.208-.671.284h-.047a5.738,5.738,0,0,1-5.795-1.418c-.1-.1,0-.246.151-.189a8.669,8.669,0,0,0,5.388.822c0-.34-1.3-4.226-1.115-4.263a10.236,10.236,0,0,1,2.836.265c-1.257-5.237-3.346-10.219-4.528-15.446a.162.162,0,0,1,.3-.113c2.562,5.067,4.141,11.051,5.577,16.42C575.179,200.425,572.55,199.839,572.1,199.7Z" transform="translate(-474.585 -160.656)" fill="#263238"/>
      <path id="Path_731" data-name="Path 731" d="M575.47,204.455A6.836,6.836,0,0,1,573.144,207a3.006,3.006,0,0,1-1.805.435c-1.389-.113-1.635-1.323-1.569-2.411a7.363,7.363,0,0,1,.312-1.692A8.811,8.811,0,0,0,575.47,204.455Z" transform="translate(-478.223 -161.756)" fill="#263238"/>
      <path id="Path_732" data-name="Path 732" d="M575.6,207.1a3.006,3.006,0,0,1-1.805.435c-1.39-.113-1.635-1.323-1.569-2.411A3.147,3.147,0,0,1,575.6,207.1Z" transform="translate(-480.683 -161.853)" fill="#ff9cbd"/>
      <path id="Path_733" data-name="Path 733" d="M590.128,166.847s1.22,3.687.085,6.475c-2.335,5.738-9.141,4.67-11.344,7.014-2.023,2.193-1.021,6.428-2.836,8.612-2.524,3.016-6.258,2.127-6.617,4.084s-1.248,8.158-3.659,9.085-16.07-39.183,16.07-39.817c0,0,4.292-2.061,11.344.945,7.761,3.356,11.788,15.56,11.788,15.56s-.17-.161-1.333-1.068c-1.626-1.267-2.3-2.5-3.488-3.318-1.891-1.276-2.836-.7-4.727-1.938A21.218,21.218,0,0,1,590.128,166.847Z" transform="translate(-499.262 -159.474)" fill="#263238"/>
      <path id="Path_734" data-name="Path 734" d="M596.021,165.3a21.743,21.743,0,0,1,1.238,4.849,9.075,9.075,0,0,1-.407,4.812,6.683,6.683,0,0,1-3.507,3.091c-1.493.652-3.167.945-4.727,1.664a5,5,0,0,0-2.051,1.749,6.618,6.618,0,0,0-.8,2.515,8.9,8.9,0,0,1-1.512,4.556,5.577,5.577,0,0,1-4.2,2.061c-1.616.095-3.431-.246-4.963.558,1.6-.681,3.28-.2,4.973-.17a6.021,6.021,0,0,0,4.651-2.061c1.238-1.342,1.494-3.214,1.768-4.821a6.068,6.068,0,0,1,.728-2.24,4.349,4.349,0,0,1,1.758-1.437c1.437-.709,3.129-1,4.726-1.711a8.811,8.811,0,0,0,2.212-1.39,5.283,5.283,0,0,0,1.578-2.127,9.4,9.4,0,0,0,.217-5.1,21.2,21.2,0,0,0-1.682-4.793Z" transform="translate(-505.751 -159.676)" fill="#263238"/>
      <path id="Path_735" data-name="Path 735" d="M562.7,166.81a17.524,17.524,0,0,0,1.815,4.329,8.253,8.253,0,0,0,3.432,3.346,11.88,11.88,0,0,0,2.269.728,3.781,3.781,0,0,1,1.806,1.059,11.526,11.526,0,0,0,1.513,1.806,5.076,5.076,0,0,0,2.108,1.068A5.731,5.731,0,0,1,573.8,177.8a12.387,12.387,0,0,1-1.286-1.891,4.082,4.082,0,0,0-2.07-1.361,12.679,12.679,0,0,1-2.146-.728,8.756,8.756,0,0,1-3.242-3.053A32.637,32.637,0,0,1,562.7,166.81Z" transform="translate(-471.721 -159.758)" fill="#263238"/>
      <path id="Path_736" data-name="Path 736" d="M584.124,203.663a8.187,8.187,0,0,0,4.84-10.5h0a8.177,8.177,0,1,0-6.825,10.966A7.852,7.852,0,0,0,584.124,203.663Zm3.781-10.124a7.09,7.09,0,1,1-9.1-4.2,6.978,6.978,0,0,1,1.721-.4,7.09,7.09,0,0,1,7.421,4.594Z" transform="translate(-495.395 -160.907)" fill="#ebebeb"/>
      <path id="Path_737" data-name="Path 737" d="M564.338,199.6c3.271-.737,5.133-4.916,4.15-9.311a9.738,9.738,0,0,0-2.94-5.2,5.1,5.1,0,0,0-8.508,1.891,9.794,9.794,0,0,0-.435,5.955c.945,4.159,4.093,7.052,7.2,6.731a5.155,5.155,0,0,0,.529-.066Zm.529-13.735a8.668,8.668,0,0,1,2.59,4.623c.851,3.781-.633,7.4-3.318,8.007s-5.568-2-6.428-5.823a8.642,8.642,0,0,1,.369-5.284,4.348,4.348,0,0,1,2.949-2.713,2.117,2.117,0,0,1,.416-.066,4.5,4.5,0,0,1,3.422,1.257Z" transform="translate(-458.81 -160.672)" fill="#ebebeb"/>
      <path id="Path_738" data-name="Path 738" d="M569.27,194.341l-.87-.662c.945-1.286,3.469-3.28,5.889-1.635l-.614.945C571.51,191.467,569.364,194.228,569.27,194.341Z" transform="translate(-475.757 -161.104)" fill="#ebebeb"/>
      <path id="Path_739" data-name="Path 739" d="M590.659,204.616l-1.059-.284c.132-.492,1.333-4.84,3.621-5.766s16.751-2.722,17.375-2.836l.132,1.078c-4.188.539-15.437,2.07-17.091,2.741S590.971,203.415,590.659,204.616Z" transform="translate(-532.236 -161.34)" fill="#ebebeb"/>
      <path id="Path_740" data-name="Path 740" d="M605.2,200.624s-6.352-7.165-9.67-4.812,2.1,13.178,6.428,14.246a4.263,4.263,0,0,0,5.4-2.93Z" transform="translate(-533.493 -161.319)" fill="#ffc4c0"/>
      <path id="Path_741" data-name="Path 741" d="M596.941,199.08c-.066,0-.066.095,0,.113,3.053.841,4.9,3.365,6.3,6.041-.992-.945-2.24-1.437-3.564-.236a.095.095,0,0,0,.095.151,2.6,2.6,0,0,1,2.968.577,12.5,12.5,0,0,1,1.635,2.146c.17.246.624.057.482-.236v-.057C604.456,203.854,601,199,596.941,199.08Z" transform="translate(-533.281 -161.523)" fill="#263238"/>
      <path id="Path_742" data-name="Path 742" d="M598.729,234.228l-3.961,11.344L580.3,232.12l-3.715,4.727s14.539,21.742,14.577,20.74l4.15-9.8,6.92,6.371-1.333-16.77Z" transform="translate(-511.446 -163.33)" fill="#ebebeb"/>
      <path id="Path_743" data-name="Path 743" d="M600.794,246.116c-.3-2.751-.539-5.539-.945-8.271a.1.1,0,0,0-.189,0c-.435,2.694.794,13.234.945,15.749h0c-.293-.274-6.4-5.587-6.456-5.5-.945,1.569-3.97,8.706-4.178,9.349-2.3-3.45-11.079-15.995-13.764-19.237a.094.094,0,0,0-.161.095c2.061,3.668,13.7,20.57,13.858,20.513a106.432,106.432,0,0,0,4.339-10.4c1.049,1.172,7.241,7.2,7.241,6.787A85.847,85.847,0,0,0,600.794,246.116Z" transform="translate(-510.175 -163.638)" fill="#263238"/>
      <rect id="Rectangle_37" data-name="Rectangle 37" width="62.372" height="3.639" transform="translate(52.779 177.284)" fill="#c7c7c7"/>
      <rect id="Rectangle_38" data-name="Rectangle 38" width="37.907" height="3.639" transform="translate(77.244 177.284)" fill="#a6a6a6"/>
      <path id="Path_744" data-name="Path 744" d="M488.56,347.683l78.934.009,11.287-53.883H499.847Z" transform="translate(-404.775 -166.704)" fill="#c7c7c7"/>
      <path id="Path_745" data-name="Path 745" d="M531.189,322.031a4.254,4.254,0,0,0,4.3,4.831,5.492,5.492,0,0,0,5.313-4.831,4.263,4.263,0,0,0-4.3-4.831A5.483,5.483,0,0,0,531.189,322.031Z" transform="translate(-407.096 -167.983)" fill="#fff"/>
      <path id="Path_746" data-name="Path 746" d="M571.44,353.038c-5.587,3.025-12.346,10.257-17.016,11.07a5.427,5.427,0,0,1-5.87-2.7s-2.089,4.793-6.428,4.831c-2.24,0-4.235-3.535-4.235-3.535s-1.843,3.781-5.672,3.573c-3.072-.17-4.613-3.706-4.613-3.706s-3.451,2.836-6.532,1.626c-6.258-2.382-7.657-28.823,1.891-33.417,4.443-2.146,4.424,4.33,4.424,4.33s2.269-9.311,7.714-9.737,4.925,7.988,4.925,7.988,2.269-9.009,7.959-8.876c5.918.132,3.961,8.461,3.961,8.461s3.677-6.088,8.007-5c7.156,1.815-.945,15.617.718,21.355h9.453Z" transform="translate(-423.458 -168.381)" fill="#ffc4c0"/>
      <path id="Path_747" data-name="Path 747" d="M508.769,359.644c5.54-2.4,8.2,1.56,13.981.8,6.428-.832,4.339-8.385-6.958-9.718H506Z" transform="translate(-368.832 -169.816)" fill="#ffc4c0"/>
      <path id="Path_748" data-name="Path 748" d="M564.316,362.629a.066.066,0,1,1-.132,0c-2.581-8.583-2.779-18.812.189-27.32.095-.284.6-.246.548.085C563.54,344.781,563.058,353.2,564.316,362.629Z" transform="translate(-460.527 -168.963)" fill="#263238"/>
      <path id="Path_749" data-name="Path 749" d="M551.033,363.309a.1.1,0,0,1-.189,0c-2.609-8.858-2.514-20.381,2.061-29.8.151-.321.614-.454.463-.066C550.806,339.95,549.851,354.829,551.033,363.309Z" transform="translate(-436.638 -168.858)" fill="#263238"/>
      <path id="Path_750" data-name="Path 750" d="M541.7,332.8c-4.037,9.2-4.727,18.764-4.018,28.69,0,.132-.17.132-.208,0-1.673-4.727-1.465-11.136-.879-16.07a26.47,26.47,0,0,1,4.783-12.771C541.479,332.5,541.781,332.6,541.7,332.8Z" transform="translate(-412.706 -168.824)" fill="#263238"/>
      <path id="Path_751" data-name="Path 751" d="M664.822,256.991c-7.222,25.193-22.688,55.84-33.71,64.669-6.721,5.379-28.246,6.872-29.3-7.109s44.042-63.431,52.73-71.125C662.449,236.412,671.619,233.292,664.822,256.991Z" transform="translate(-600.226 -163.67)" fill="#ffc4c0"/>
      <path id="Path_752" data-name="Path 752" d="M664.541,257.5c-7.3,23.746-23.756,55.773-34.787,64.622-6.721,5.369-27.943,6.371-29.012-7.61s45.829-67.032,53.382-72.9C662.471,235.141,671.792,233.9,664.541,257.5Z" transform="translate(-599.171 -163.628)" fill="#37474f"/>
      <path id="Path_753" data-name="Path 753" d="M601.34,325.989a28.349,28.349,0,0,0,8.8,0,23.63,23.63,0,0,0,8.092-2.959c5.275-3.072,8.791-8.253,11.911-13.348q5.124-8.413,9.6-17.139c2.987-5.842,5.672-11.807,8.357-17.81,1.333-3.025,2.552-6.088,3.781-9.141s2.477-6.069,3.573-9.16c.274-.775.539-1.56.794-2.335,0-.076.142,0,.123,0-.945,3.2-1.891,6.409-2.978,9.576-.132.416-.284.823-.425,1.229,1.106-2.382,2.24-4.727,3.413-7.109.076-.142.265,0,.208.113-1.049,2.439-2.146,4.859-3.271,7.26l-1.683,3.545q-.813,2.193-1.654,4.386-3.677,9.359-8.177,18.339t-9.69,17.583c-3.186,5.284-6.617,10.72-11.788,14.255a22.688,22.688,0,0,1-17.016,3.535,14.833,14.833,0,0,1-2.108-.586.142.142,0,0,1,.132-.236Z" transform="translate(-589.049 -164.53)" fill="#263238"/>
      <path id="Path_754" data-name="Path 754" d="M583.824,219.4c3.413-11.107,9.188-26.469,13.783-29.087,4.821-2.836,22.177-11.93,26.894-12.752s22.035,2.552,25.353,5.256c2.656,2.174-1.03,8.262-10.72,8.328-9.057.066-11.23-.359-13.773.284s-9.718,7.563-8.687,11.344c.6,2.2,6.192,5.577,10.171,4.5s6.069-5.275,10.871-8.054,12.213-1.144,12.289.945-2.514,2.637-7.449,8.877c-3.176,4.018-5.039,11.58-11.854,18.273-3.422,3.365-9.954,12.733-9.954,12.733Z" transform="translate(-566.74 -160.34)" fill="#ffc4c0"/>
      <path id="Path_755" data-name="Path 755" d="M587.017,190.138c4.519-5.086,15.409-13.811,25.127-15.844,6.57-1.38,26.176,12.421,24.9,16.382s-4.916,3.4-10.19,1.891c-1.891-.548-11.693-5.946-13.811-4.055-3.053,2.713-8,12.885-8,12.885Z" transform="translate(-556.169 -160.162)" fill="#ffc4c0"/>
      <path id="Path_756" data-name="Path 756" d="M600.24,189.235c-1.891-4.774-7.336-8.035-12.79-10.8-.085,0-.161.085-.076.132,1.39.7,10.067,6.523,12.79,10.729C600.192,189.368,600.258,189.292,600.24,189.235Z" transform="translate(-519.611 -160.394)" fill="#263238"/>
      <path id="Path_757" data-name="Path 757" d="M592.2,190.139c4.518-5.086,15.409-13.811,25.126-15.843,6.57-1.38,21.27,14.6,19.984,18.566s-6.551,3.45-12,.51c-1.758-.945-7.307-6.362-9.453-4.471-3.044,2.713-10.493,9.453-10.493,9.453Z" transform="translate(-561.348 -160.163)" fill="#ffc4c0"/>
      <path id="Path_758" data-name="Path 758" d="M592.032,194.118c.718-.8.945-1.078,1.711-1.891s1.484-1.56,2.278-2.288a8.316,8.316,0,0,1,2.231-1.7,4.169,4.169,0,0,1,2.628-.094c1.976.51,3.583,2.08,5.123,3.327,1.721,1.39,5.36,3.781,8.432,3.951a5.926,5.926,0,0,0,2.477-.255,3.851,3.851,0,0,0,1.607-.945c1.664-2,.435-4.8-.945-6.854-2.571-3.847-6.362-6.939-10.106-9.585q-1.371-.945-2.779-1.891a9.322,9.322,0,0,0-3.488-1.635c-2.089-.35-5.861,1.229-7.033,1.692-.085,0-.123-.1,0-.142,1.418-.6,5.029-2.685,8.376-1.966a10.4,10.4,0,0,1,3.318,1.749c1.1.69,2.174,1.427,3.224,2.184a47.58,47.58,0,0,1,5.823,4.85,20.111,20.111,0,0,1,4.462,5.823,5.936,5.936,0,0,1-.605,6.078c-1.172,1.39-3.2,1.437-4.122,1.409a9.786,9.786,0,0,1-2.656-.454,41.4,41.4,0,0,1-5.521-2.628c-1.711-1.021-3.157-2.524-4.953-3.394a3.6,3.6,0,0,0-2.76-.265,9.452,9.452,0,0,0-2.335,1.531,28.735,28.735,0,0,0-4.065,3.5C591.985,194.629,591.73,194.459,592.032,194.118Z" transform="translate(-543.621 -160.135)" fill="#263238"/>
      <path id="Path_759" data-name="Path 759" d="M612.521,194.186c1.758-2.477,5.795-13.234,8.508-16.3s14.4-13.234,18.906-12.015c5.672,1.569-2.014,10.956-5.672,14.737s-4.367,11.117-4.367,11.117Z" transform="translate(-585.133 -159.702)" fill="#ffc4c0"/>
      <path id="Path_760" data-name="Path 760" d="M624.555,174.7c-1.286,1.182-2.477,2.524-3.639,3.829a33.619,33.619,0,0,0-3.252,3.781,14.939,14.939,0,0,0-1.891,4.556c-.208.785-.359,1.579-.491,2.382s-.218,1.768-.378,2.637c0,.095.123.132.142,0a36.66,36.66,0,0,1,1.4-4.66,20.214,20.214,0,0,1,2.2-4.519c1.825-2.836,4.226-5.161,6.079-7.931C624.81,174.727,624.659,174.613,624.555,174.7Z" transform="translate(-570.178 -160.188)" fill="#263238"/>
      <path id="Path_761" data-name="Path 761" d="M583.992,208.542a7.251,7.251,0,0,0,4.916-2.2c1.238-1.115,2.4-2.316,3.649-3.422a17.359,17.359,0,0,1,4.027-2.912,20,20,0,0,1,5.379-1.418,10.719,10.719,0,0,1,5.332.284c1.409.511,2.94,1.777,2.373,3.479a6.708,6.708,0,0,1-1.333,2.061,16.252,16.252,0,0,1-1.73,1.692c-1.229,1.078-2.562,2.051-3.687,3.242a25.4,25.4,0,0,0-3.5,5.577c-.388.709-2.836,5.53-3.781,7.166a27.985,27.985,0,0,1-2.742,3.97,38.725,38.725,0,0,1-3.271,3.2,22.426,22.426,0,0,0-3.384,3.639c-.047.066-.132,0-.1-.066,1.172-2.685,3.526-4.623,5.672-6.523,2.751-2.467,8.271-14.369,9.321-16,1.739-2.741,4.632-4.244,6.683-6.674.473-.558,1.2-1.361,1.106-2.155a2.249,2.249,0,0,0-1.5-1.6,9.207,9.207,0,0,0-5.209-.132,23.133,23.133,0,0,0-5.171,1.352,17.471,17.471,0,0,0-3.989,2.581c-1.38,1.153-2.713,2.354-4.178,3.413a7.241,7.241,0,0,1-4.906,1.579C583.878,208.665,583.907,208.542,583.992,208.542Z" transform="translate(-525.919 -161.485)" fill="#263238"/>
      <path id="Path_762" data-name="Path 762" d="M587.286,181.845c-1.248-.473-2.477-.993-3.724-1.437h0c1.475.435,2.987.766,4.471,1.182a4.557,4.557,0,0,1,3,2.014,3.346,3.346,0,0,1-.369,3.327,9.056,9.056,0,0,1-2.931,2.411c-.057,0-.113-.057-.057-.095,1.626-1.153,4.121-3.413,2.505-5.568A6.145,6.145,0,0,0,587.286,181.845Z" transform="translate(-507.112 -160.501)" fill="#263238"/>
      <path id="Path_763" data-name="Path 763" d="M586.977,194.383a7.562,7.562,0,0,0,3.98-1.078,3.118,3.118,0,0,0,1.087-1.38,3.227,3.227,0,0,0,.18-.945,1.408,1.408,0,0,0-.217-.945c-.066-.066.057-.142.085-.057a3.789,3.789,0,0,0,.274.51,2.391,2.391,0,0,1,.142.463,2.451,2.451,0,0,1,0,.945,3.1,3.1,0,0,1-1.049,1.768,5.124,5.124,0,0,1-4.5.851.067.067,0,0,1,.019-.132Z" transform="translate(-511.511 -161.023)" fill="#263238"/>
      <path id="Path_764" data-name="Path 764" d="M620.23,196.83a72.071,72.071,0,0,0,1.267,8.4c.274,1.39.624,2.77,1.021,4.14s.945,2.694,1.4,4.018a28.134,28.134,0,0,1,1.74,8.177,17.786,17.786,0,0,1-1.635,8.13,15.362,15.362,0,0,0,2.363-8.139,24.641,24.641,0,0,0-1.579-8.5c-.473-1.352-1.021-2.647-1.427-3.97s-.8-2.685-1.182-4.037-.69-2.732-1.011-4.112S620.552,198.21,620.23,196.83Z" transform="translate(-576.847 -161.4)" fill="#263238"/>
      <path id="Path_765" data-name="Path 765" d="M669.026,242.385c-1.966,10.909-20.957,65.879-26.469,74.453s-20.456,11.712-26.015-2.373,11.892-81.448,15.541-92.7C634.116,215.5,669.736,238.434,669.026,242.385Z" transform="translate(-614.99 -162.705)" fill="#ffc4c0"/>
      <path id="Path_766" data-name="Path 766" d="M669.185,249.509l-46.32-21.449S608.2,290.451,609.7,310.406c1.078,14.312,19.171,23.4,30.921,2.836S669.185,249.509,669.185,249.509Z" transform="translate(-609.591 -163.108)" fill="#37474f"/>
      <path id="Path_767" data-name="Path 767" d="M656.314,258.466c-7-2.959-35.156-16.07-41.055-19.36-.406-.227-.369-.539.095-.359,21.165,8.357,34.362,16.193,41.064,19.445C656.588,258.268,656.484,258.542,656.314,258.466Z" transform="translate(-602.003 -163.69)" fill="#263238"/>
      <path id="Path_768" data-name="Path 768" d="M611.46,294.479c3.838-9.151,7.477-18.377,10.654-27.773.889-2.638,1.758-5.275,2.59-7.922s1.635-5.1,2.325-7.676c-.945-.558-5.265-2.836-5.738-3.2a.18.18,0,0,1,.151-.3c.558.151,5.5,2.439,6.56,3.082.151.095-1.4,5.133-2.1,7.563s-1.418,4.8-2.165,7.194q-2.25,7.09-4.849,14.066-2.779,7.563-5.956,14.87C611.12,298.562,606.488,306.257,611.46,294.479Z" transform="translate(-568.078 -164.177)" fill="#263238"/>
    </g>
  </g>
</svg>
