<svg xmlns="http://www.w3.org/2000/svg" width="288" height="282.5" viewBox="0 0 288 282.5">
  <g id="Group_1139" data-name="Group 1139" transform="translate(-704.5 43)">
    <g id="freepik--character-1--inject-143" transform="translate(737 -43)">
      <path id="Path_818" data-name="Path 818" d="M224.594,331s-1.441,16.25-3.575,39.736h0l-.195,2.047c-1.083,11.537-2.232,24.678-3.488,38.446H143.53c5.3-41.361,9.869-76.99,10.248-80.024v-.217Z" transform="translate(-74.913 -129.73)" fill="#a6a6a6"/>
      <path id="Path_819" data-name="Path 819" d="M160.651,339.579c-.466,5.677-.953,11.364-1.43,17.04h0c-.141,1.647-.3,3.25-.444,4.918h0c-1.43,16.315-2.936,32.629-4.615,48.922h-1.083c1.809-16.77,3.488-33.582,5.178-50.33h0q.282-2.719.553-5.417h0q.758-7.583,1.538-15.069C160.4,339.406,160.673,339.406,160.651,339.579Z" transform="translate(-21.316 -129.025)" fill="#263238"/>
      <path id="Path_820" data-name="Path 820" d="M205.422,331s-3.369,19.044-8.092,45.716h0c-.087.433-.162.856-.238,1.311h0c-1.8,10.2-3.8,21.471-5.872,33.192H139.806l-1.17-7.735h0l-.227-1.517-.065-.4-.845-5.677h0l-.336-2.167L127.63,330.96Z" transform="translate(-38.517 -129.733)" fill="#263238"/>
      <path id="Path_821" data-name="Path 821" d="M217.093,411.225h-69.83v-1.2c-.379-.217-.769-.433-1.17-.639-4.106-2.242-7.713-3.976-10.681-5.3l-1.462-.661c-1.343-.585-2.546-1.083-3.542-1.462-2.567-1.018-4-1.473-4-1.473-.087-.217-.162-.423-.238-.628-10.118-25.761-16.25-65-16.791-68.66v-.282H209S212.792,367.839,217.093,411.225Z" transform="translate(-30.418 -129.736)" fill="#a6a6a6"/>
      <path id="Path_822" data-name="Path 822" d="M124.629,410.407H123.7c-1.82-23.118-3.521-46.246-5.3-69.386a.293.293,0,0,1,.585,0Q121.726,375.687,124.629,410.407Z" transform="translate(52.275 -128.918)" fill="#263238"/>
      <path id="Path_823" data-name="Path 823" d="M174.53,393.444a155.828,155.828,0,0,1,24.429,11.375.274.274,0,0,1-.227.5c-8.233-3.532-16.629-6.911-24.645-10.9a.536.536,0,1,1,.444-.975Z" transform="translate(-82.2 -124.532)" fill="#263238"/>
      <path id="Path_824" data-name="Path 824" d="M183.943,341.338c0-.282.531-.347.52,0a274.87,274.87,0,0,0,1.387,27.494c.379,4.236,3.792,27.657,11.136,26,1.235-.292,1.863-1.495,2.058-3.358.228-2.232-.617-4.961-.986-7.182-.812-4.9-1.462-9.815-1.885-14.776a134.608,134.608,0,0,1,.292-27.711.238.238,0,1,1,.477,0c0,12.794.325,25.577,2.242,38.251.921,6.088,3.987,15.264-2.383,16.25s-10.692-14.419-11.483-18.611C183.109,365.907,183.022,353.2,183.943,341.338Z" transform="translate(-94.234 -128.888)" fill="#263238"/>
      <path id="Path_825" data-name="Path 825" d="M186.4,391.236a40.015,40.015,0,0,1,1.657,4.853,11.049,11.049,0,0,1,.683,4,.292.292,0,0,1-.509.108,14.411,14.411,0,0,1-1.712-3.889c-.552-1.495-1.148-2.99-1.657-4.507a.823.823,0,0,1,1.538-.563Z" transform="translate(-83.813 -124.75)" fill="#263238"/>
      <path id="Path_826" data-name="Path 826" d="M128.913,348.632a12.934,12.934,0,0,1,.314-3.033.152.152,0,0,1,.293,0,11.852,11.852,0,0,1,.347,2.632c.108,1.007.238,2,.347,3.022a45.233,45.233,0,0,0,1.083,6.121,21.741,21.741,0,0,0,5.611,10.075,29.248,29.248,0,0,0,9.49,6.251c3.954,1.679,8.1,2.3,12.187,3.5.163,0,.119.292-.054.3a35.134,35.134,0,0,1-13.184-2.6,28.166,28.166,0,0,1-9.9-6.316,22.046,22.046,0,0,1-5.774-10.378,30.763,30.763,0,0,1-.791-6.131,30.429,30.429,0,0,1,.032-3.445Z" transform="translate(6.902 -128.523)" fill="#263238"/>
      <path id="Path_827" data-name="Path 827" d="M222.1,207.43c0-5.5,2.167-30.69,4.333-37.569s9.858-26.205,15.3-25.068,3.64,6.966,3.64,6.966,4.539-7.648,9.9-6.012,2.264,10.627,2.264,10.627,5.243-7.507,10.476-5.492.607,10.53.607,10.53,4.463-7.1,8.081-3.618c4.333,4.182-5.362,16.325-7.193,24.1-.422,1.766-5.882,36.356-5.882,36.356Z" transform="translate(-213.239 -144.746)" fill="#ad6359"/>
      <path id="Path_828" data-name="Path 828" d="M240.346,159.491c-7.117,8.948-8.666,14.083-9.912,25.3,0,.217-.358.228-.347,0,.195-11.071,1.235-17.81,9.847-25.664C240.357,158.744,240.693,159.069,240.346,159.491Z" transform="translate(-184.577 -143.562)" fill="#263238"/>
      <path id="Path_829" data-name="Path 829" d="M250.961,154.877c-6.586,9.934-8.331,15.5-10.486,27.083,0,.162-.3.13-.292,0,1.148-11.581,2.34-18.286,10.226-27.353C250.766,154.205,251.242,154.422,250.961,154.877Z" transform="translate(-206.068 -143.942)" fill="#263238"/>
      <path id="Path_830" data-name="Path 830" d="M260.932,151.811c-5.677,10.086-7.865,16.109-8.493,27.668a.217.217,0,0,1-.422,0c-.5-11.851,2.167-19.38,8.591-27.808C261.062,151.1,261.289,151.171,260.932,151.811Z" transform="translate(-228.887 -144.201)" fill="#263238"/>
      <path id="Path_831" data-name="Path 831" d="M234.61,222.79s10.833-9.371,14.69-14.538,11.136-29.715,5.926-31.589c-6.727-2.427-13.725,10.92-16.25,17.907,0,0-15.567-5.612-22.652,2.882S234.61,222.79,234.61,222.79Z" transform="translate(-184.864 -142.111)" fill="#ad6359"/>
      <path id="Path_832" data-name="Path 832" d="M255.852,176.584c-7.724,2.167-10.508,11.613-13.509,18.2a.661.661,0,0,1-1.083.238c-6.684-1.917-16.661-2.676-22.349,1.961-.162.13-.379-.087-.228-.238,5.417-5.8,15.285-5.861,22.468-3.25,2.968-6.8,6.175-16.087,14.657-16.943C255.884,176.508,255.906,176.573,255.852,176.584Z" transform="translate(-187.56 -142.097)" fill="#263238"/>
      <path id="Path_833" data-name="Path 833" d="M286.707,255.889c-7.367,11.581-48.543,46.485-83.415,51.359-4.723.661-22.414-3.867-25.642-15.87-5.752-21.374,1.408-64.684,5.915-90.738.877-5.081,47.958,7.442,46.387,15.166-1.722,8.591-8.168,40.18-7.4,40.57,2.795,1.43,33.712-10.389,53.84-13.845C290.693,240.127,292.372,246.974,286.707,255.889Z" transform="translate(-174.692 -140.358)" fill="#ad6359"/>
      <path id="Path_834" data-name="Path 834" d="M175.967,212.25l53.645,14.018s-6.1,27.462-5.124,27.332,39.541-12.361,54.252-13.195,14.44,5.611,6.5,17.333-58.314,50.2-82.331,49.171c-12.209-.52-23.237-8.818-25.284-12.642C171.276,282.394,175.967,212.25,175.967,212.25Z" transform="translate(-174.298 -139.317)" fill="#455a64"/>
      <path id="Path_835" data-name="Path 835" d="M288.933,247.52c.487-.195,1-.368,1.517-.52a3.857,3.857,0,0,1-.227.91c-.314.162-.639.292-.964.433a12.166,12.166,0,0,1-3.315.878A12.091,12.091,0,0,1,288.933,247.52Zm-8.45,15.35a10,10,0,0,1,1.246-1.939,3.988,3.988,0,0,1-.119.791h0c-.412.379-.726.758-1.127,1.148Zm-34.9-15.491a2.167,2.167,0,0,1,.108-.228l1.029-.282c-.1.282-.206.574-.325.845a11.917,11.917,0,0,1-1.722,2.979A12.219,12.219,0,0,1,245.579,247.379Zm-10.692,10.367a11.919,11.919,0,0,1,.878,3.326,12.089,12.089,0,0,1-1.7-2.99,12.219,12.219,0,0,1-.878-3.337,12.557,12.557,0,0,1,1.7,2.979Zm-48.825,2.167a11.688,11.688,0,0,1,.877,3.315,13.184,13.184,0,0,1-2.578-6.316,12.352,12.352,0,0,1,1.7,2.99Zm43.018-31.752h0a3.117,3.117,0,0,1-.119.585c-.043.206-.119.552-.184.867a4.04,4.04,0,0,1-.173-.379,12.166,12.166,0,0,1-.877-3.315,9.911,9.911,0,0,1,1.354,2.232Zm-16.943,4.561a12.242,12.242,0,0,1,.877,3.326,12.091,12.091,0,0,1-1.7-2.99,11.841,11.841,0,0,1-.877-3.337,12.716,12.716,0,0,1,1.7,2.99Zm48.619,23a11.852,11.852,0,0,1,.888,3.337,11.916,11.916,0,0,1-1.7-2.99,11.584,11.584,0,0,1-.877-3.337,12.047,12.047,0,0,1,1.69,2.979ZM222.7,299.876a12.458,12.458,0,0,1,3.315-.878,11.8,11.8,0,0,1-2.99,1.712,12.532,12.532,0,0,1-3.326.877A12.391,12.391,0,0,1,222.7,299.876Zm24.071-31.914a11.48,11.48,0,0,1,3.337-.878,12.515,12.515,0,0,1-3,1.7,12.145,12.145,0,0,1-3.326.877A12.089,12.089,0,0,1,246.771,267.962Zm-31.08,3.3a12.142,12.142,0,0,1,3.326-.877,12.131,12.131,0,0,1-2.99,1.7,11.914,11.914,0,0,1-3.326.878,12.09,12.09,0,0,1,2.99-1.69Zm7.746-26.53a13.309,13.309,0,0,1,2.34-.726,4.561,4.561,0,0,1-.119.628h0a15.657,15.657,0,0,1-1.863.921,12.22,12.22,0,0,1-3.337.878,11.916,11.916,0,0,1,2.979-1.69Zm-36.778-12.718a12.167,12.167,0,0,1,3.315-.877,12.22,12.22,0,0,1-2.979,1.7,12.347,12.347,0,0,1-3.326.878,12.446,12.446,0,0,1,2.99-1.69Zm-4.615,50.428a11.481,11.481,0,0,1,3.337-.878,13.4,13.4,0,0,1-6.327,2.578,12.091,12.091,0,0,1,2.99-1.69Zm16.033-9.75a12.5,12.5,0,0,1,1.733-2.979,13.206,13.206,0,0,1-2.643,6.294,12.111,12.111,0,0,1,.91-3.293Zm-1.636-27.44a12.349,12.349,0,0,1,1.733-2.979,12.11,12.11,0,0,1-.91,3.315,12.3,12.3,0,0,1-1.733,2.979,11.743,11.743,0,0,1,.91-3.293ZM178.533,219.43a12.632,12.632,0,0,1,1.733-2.99,12.078,12.078,0,0,1-.91,3.326,11.818,11.818,0,0,1-1.733,2.979,12.111,12.111,0,0,1,.91-3.293Zm31.546,70.263a12.5,12.5,0,0,1,1.733-2.968,12.111,12.111,0,0,1-.91,3.315,11.633,11.633,0,0,1-1.733,2.979,12.185,12.185,0,0,1,.91-3.3Zm-17.16,6.229a12.608,12.608,0,0,1,2.99,1.744,12.2,12.2,0,0,1-3.326-.921,11.441,11.441,0,0,1-2.968-1.733,12.543,12.543,0,0,1,3.3.932Zm-17.051-24.71a8.314,8.314,0,0,1-1.408-.271h0v-.715A10.828,10.828,0,0,1,175.868,271.212Zm56.332,11.57a12.346,12.346,0,0,1,2.979,1.733,11.723,11.723,0,0,1-3.326-.921,12.047,12.047,0,0,1-2.968-1.722,11.917,11.917,0,0,1,3.272.888ZM211,254.616a12.72,12.72,0,0,1,2.979,1.733,12.305,12.305,0,0,1-3.326-.921,11.709,11.709,0,0,1-2.968-1.722,11.84,11.84,0,0,1,3.272.856ZM178.761,244.27a12.256,12.256,0,0,1,2.979,1.722,11.46,11.46,0,0,1-3.326-.91,12.045,12.045,0,0,1-2.968-1.722,11.743,11.743,0,0,1,3.272.856Zm21.417-22.684a12.448,12.448,0,0,1,2.968,1.722,12.113,12.113,0,0,1-3.315-.91,11.916,11.916,0,0,1-2.979-1.733,11.57,11.57,0,0,1,3.282.867Zm63.612,55.606c-.206.152-.4.314-.617.466a9.576,9.576,0,0,1-1.2-.834,8.342,8.342,0,0,1,1.777.314Zm7.1-33.409a12.827,12.827,0,0,1,2.968,1.722,11.388,11.388,0,0,1-3.315-.91,11.917,11.917,0,0,1-2.979-1.722,11.56,11.56,0,0,1,3.282.856Z" transform="translate(-174.276 -138.97)" fill="#37474f"/>
      <path id="Path_836" data-name="Path 836" d="M241.731,250.68a84.6,84.6,0,0,1-2.676,12.166c-1.083,4.052-2.535,7.962-3.911,11.916,0,.1-.173,0-.141-.054,1.213-3.976,2.167-8.049,3.25-12.068s1.842-8.1,3.055-12.068C241.352,250.311,241.731,250.42,241.731,250.68Z" transform="translate(-191.141 -136.164)" fill="#263238"/>
      <path id="Path_837" data-name="Path 837" d="M282.518,235.355c-6.207-1.831-12.5-3.315-18.806-4.8s-12.61-2.957-18.947-4.279c-3.586-.747-7.171-1.517-10.779-2.167-.1,0-.141.141,0,.162,6.186,1.831,12.48,3.347,18.763,4.864s12.61,2.968,18.936,4.333c3.575.78,7.171,1.506,10.833,2.167C282.616,235.7,282.713,235.409,282.518,235.355Z" transform="translate(-230.844 -138.293)" fill="#263238"/>
      <path id="Path_838" data-name="Path 838" d="M174.294,289.874c19.575-11.83,38.252-27.451,42.823-34.243,7.2-10.681,8.1-16.975-2.773-17.43Z" transform="translate(-106.176 -137.18)" fill="#263238"/>
      <path id="Path_839" data-name="Path 839" d="M108.1,364.651l114.213,4.842s-14.365-90.348-56.516-130.982c-5.211-5.016-17.474-4.452-25.609-.823-2.9,1.289-13.715,15.166-17.2,28.523S107.792,364.229,108.1,364.651Z" transform="translate(-34.236 -137.57)" fill="#455a64"/>
      <path id="Path_840" data-name="Path 840" d="M153.295,260.807a12.24,12.24,0,0,0,.877,3.326,12.09,12.09,0,0,0,1.7,2.99A11.5,11.5,0,0,0,155,263.8,12.09,12.09,0,0,0,153.295,260.807Zm13.552,46.138a12.239,12.239,0,0,1,.877,3.326,11.753,11.753,0,0,1-1.7-2.99,12.239,12.239,0,0,1-.877-3.326A12.282,12.282,0,0,1,166.847,306.945Zm36.41,17.853a12.219,12.219,0,0,1,.877,3.337,11.917,11.917,0,0,1-1.7-2.99,12.22,12.22,0,0,1-.877-3.337,12.287,12.287,0,0,1,1.7,2.99Zm-28.523,28.014a11.418,11.418,0,0,1,.877,3.326,13.281,13.281,0,0,1-2.578-6.327A12.35,12.35,0,0,1,174.733,352.812Zm-45.228-58.368a11.917,11.917,0,0,1,.877,3.326,12.091,12.091,0,0,1-1.7-2.99,12.242,12.242,0,0,1-.877-3.326,12.089,12.089,0,0,1,1.712,2.99Zm-16.315,30.333a11.915,11.915,0,0,1,.888,3.326,11.8,11.8,0,0,1-1.712-2.99,12.24,12.24,0,0,1-.877-3.326,11.755,11.755,0,0,1,1.712,2.968Zm35.359,23.833a11.69,11.69,0,0,1,.888,3.326,11.983,11.983,0,0,1-1.712-2.99,12.219,12.219,0,0,1-.877-3.337,11.819,11.819,0,0,1,1.712,2.99ZM185.9,289.753a11.775,11.775,0,0,1,.888,3.326,11.98,11.98,0,0,1-1.712-2.99,12.219,12.219,0,0,1-.878-3.337,12,12,0,0,1,1.712,2.99Zm-42.747-12.014a12.219,12.219,0,0,1,3.337-.877,13.4,13.4,0,0,1-6.327,2.578,12.281,12.281,0,0,1,3-1.712ZM134.4,314.181a12.241,12.241,0,0,1,3.326-.878,13.184,13.184,0,0,1-6.316,2.589,12.133,12.133,0,0,1,3-1.722Zm65.508,41.794a11.919,11.919,0,0,1,3.326-.877,12.089,12.089,0,0,1-2.99,1.7,12.238,12.238,0,0,1-3.326.878,12.092,12.092,0,0,1,3-1.712Zm-68.66,4.55a11.918,11.918,0,0,1,3.337-.888,12.285,12.285,0,0,1-2.99,1.7l-.715.282H129.05a12.468,12.468,0,0,1,2.21-1.105Zm44.242-35.392a12.221,12.221,0,0,1,3.337-.877,13.4,13.4,0,0,1-6.326,2.578,12.285,12.285,0,0,1,3-1.712Zm-30.95-79.926a11.668,11.668,0,0,1,3.326-.877,13.282,13.282,0,0,1-6.327,2.578,12.349,12.349,0,0,1,3.012-1.712Zm-8.125,16.737a11.754,11.754,0,0,1-1.733,2.968,12.112,12.112,0,0,1,.91-3.315,12.718,12.718,0,0,1,1.733-2.979,12.3,12.3,0,0,1-.9,3.315Zm-21.742,84.238a12,12,0,0,1-1.733,2.979,12.079,12.079,0,0,1,.91-3.326,12.719,12.719,0,0,1,1.733-2.979,12.189,12.189,0,0,1-.9,3.315Zm51.7-61.564a12.09,12.09,0,0,1-1.733,2.968,12.111,12.111,0,0,1,.91-3.315,12.35,12.35,0,0,1,1.733-2.979,12.188,12.188,0,0,1-.9,3.315Zm-15.7,36.832a11.755,11.755,0,0,1-1.733,2.968,11.755,11.755,0,0,1,.921-3.315,12.305,12.305,0,0,1,1.722-2.979,11.808,11.808,0,0,1-.9,3.3Zm63.6,46.647a1.158,1.158,0,0,1-.065.466h-.293a5.05,5.05,0,0,1,.368-.488Zm-32.153-1.517a12.35,12.35,0,0,1,1.733-2.979,11.808,11.808,0,0,1-.91,3.326c0,.1-.087.206-.13.3h-.921q.108-.358.238-.672Zm7.681-26.086a11.752,11.752,0,0,1-1.733,2.968,11.753,11.753,0,0,1,.921-3.315,12.111,12.111,0,0,1,1.722-2.979,12.294,12.294,0,0,1-.9,3.3Zm-23.919-89.232a12.35,12.35,0,0,1-1.733,2.979,11.808,11.808,0,0,1,.91-3.326,12.09,12.09,0,0,1,1.733-2.968,12.11,12.11,0,0,1-.9,3.293ZM131.65,336.27a11.756,11.756,0,0,1-2.968-1.733,11.756,11.756,0,0,1,3.315.921,11.916,11.916,0,0,1,2.979,1.722,12.294,12.294,0,0,1-3.315-.932Zm28.74,28.773a11.636,11.636,0,0,1-2.979-1.733,12.3,12.3,0,0,1,3.326.91,12.435,12.435,0,0,1,2.968,1.733,12.115,12.115,0,0,1-3.3-.932ZM212.3,342.293a3.291,3.291,0,0,0,.2.78,8.662,8.662,0,0,1-1.517-1.018,10.524,10.524,0,0,1,1.332.217Zm-24.732-32.781a11.918,11.918,0,0,1-2.979-1.733,12.112,12.112,0,0,1,3.315.91,11.917,11.917,0,0,1,2.979,1.733,12.109,12.109,0,0,1-3.3-.932Zm-71.5-5.319a11.753,11.753,0,0,1-2.968-1.733,12.113,12.113,0,0,1,3.315.91A12.72,12.72,0,0,1,119.4,305.1a12.3,12.3,0,0,1-3.272-.932Zm46.2,34.568a11.917,11.917,0,0,1-2.979-1.733,12.111,12.111,0,0,1,3.315.91,11.918,11.918,0,0,1,2.979,1.733,12.109,12.109,0,0,1-3.261-.932Zm-12.4-44.015a12.351,12.351,0,0,1-2.979-1.733,13.206,13.206,0,0,1,6.294,2.643,12.111,12.111,0,0,1-3.261-.932Zm-29.3-18.579a11.634,11.634,0,0,1-2.979-1.733,12.293,12.293,0,0,1,3.326.91,12.089,12.089,0,0,1,2.968,1.733,12.113,12.113,0,0,1-3.315-.91Zm54.306-7.821a12.094,12.094,0,0,1-2.968-1.733,13.325,13.325,0,0,1,6.294,2.643,12.3,12.3,0,0,1-3.369-.91Z" transform="translate(-29.895 -136.791)" fill="#37474f"/>
      <path id="Path_841" data-name="Path 841" d="M78.749,256.821C83.635,269.4,121.377,365.672,129.1,365.455c22.749-.65,46.387-6.651,43.614-24.645-4.333-28.242-51.934-76.514-80.706-97.942C73.083,228.774,73.928,244.417,78.749,256.821Z" transform="translate(50.089 -137.361)" fill="#455a64"/>
      <path id="Path_842" data-name="Path 842" d="M90.767,267.245a12.352,12.352,0,0,1,2.979,1.733,12.111,12.111,0,0,1-3.315-.91,11.634,11.634,0,0,1-2.979-1.733A12.113,12.113,0,0,1,90.767,267.245Zm20.789,8.667a12.283,12.283,0,0,1,2.968,1.733,12.109,12.109,0,0,1-3.315-.91A11.633,11.633,0,0,1,108.23,275a12.186,12.186,0,0,1,3.326.878Zm47.665,42.076h0l.617,1.083a9.478,9.478,0,0,1-2.08-1.322,9.054,9.054,0,0,1,1.462.206Zm-23.161-4.961a12.089,12.089,0,0,1,2.968,1.733,12.217,12.217,0,0,1-3.315-.91,11.634,11.634,0,0,1-2.979-1.733,12.185,12.185,0,0,1,3.326.91Zm-32.553-4.615a12.5,12.5,0,0,1,2.979,1.733,13.2,13.2,0,0,1-6.294-2.654,12.119,12.119,0,0,1,3.315.9ZM80.66,250.638a11.752,11.752,0,0,1,1.733-2.968,12.729,12.729,0,0,1-.91,3.315,12.35,12.35,0,0,1-1.733,2.979,12.187,12.187,0,0,1,.91-3.347ZM162.525,346.8a12.091,12.091,0,0,1,1.733-2.968,12.112,12.112,0,0,1-.91,3.315,11.638,11.638,0,0,1-1.733,2.979A12.186,12.186,0,0,1,162.525,346.8Zm-41.4-51.76a12.349,12.349,0,0,1,1.733-2.979,12.111,12.111,0,0,1-.91,3.315,12.3,12.3,0,0,1-1.733,2.979,11.841,11.841,0,0,1,.91-3.315ZM147.435,331a12.316,12.316,0,0,1,3.337-.878,13.422,13.422,0,0,1-6.283,2.578A12.221,12.221,0,0,1,147.435,331Zm-.292-30.463.444.574a9.747,9.747,0,0,1-1.809.357,9.5,9.5,0,0,1,1.365-.932Zm-28.307,54.274a8.3,8.3,0,0,1-1.278.867c-.108-.184-.217-.379-.314-.574A9.411,9.411,0,0,1,118.836,354.809ZM101.817,253.5l.65.574a9.435,9.435,0,0,1-2.416.542,10.758,10.758,0,0,1,1.766-1.116Zm-.314,35.966a11.418,11.418,0,0,1,.878,3.326,12.045,12.045,0,0,1-1.69-2.99,11.484,11.484,0,0,1-.877-3.337A12.469,12.469,0,0,1,101.5,289.464Zm45.456,66.894a12.556,12.556,0,0,1,.888,3.25,11.8,11.8,0,0,1-1.712-2.99,12.22,12.22,0,0,1-.877-3.337,12.352,12.352,0,0,1,1.7,3.077Zm-28.166-31.8a11.711,11.711,0,0,1,.888,3.315,11.918,11.918,0,0,1-1.7-2.979,11.58,11.58,0,0,1-.877-3.337,12.306,12.306,0,0,1,1.733,2.968ZM129.853,342.7a12.655,12.655,0,0,1,2.979,1.733,11.843,11.843,0,0,1-3.315-.91,12,12,0,0,1-2.979-1.733,12.107,12.107,0,0,1,3.358.878Z" transform="translate(54.515 -136.499)" fill="#37474f"/>
      <path id="Path_843" data-name="Path 843" d="M138.416,279.9c-2.34-5.254-4.734-10.5-7.2-15.686a.119.119,0,1,0-.217.1c2.665,7.107,5.5,14.137,8.417,21.135a79.078,79.078,0,0,1-5.222-8.948.173.173,0,0,0-.3.152,47.2,47.2,0,0,0,6.164,10.313c.823,1.961,1.636,3.922,2.47,5.882,3.987,9.425,7.886,18.9,12.144,28.22,2.383,5.232,4.7,10.508,7.139,15.73.076.173.336,0,.271-.141C154.72,317.547,146.725,298.654,138.416,279.9Z" transform="translate(1.19 -135.109)" fill="#263238"/>
      <rect id="Rectangle_43" data-name="Rectangle 43" width="72.538" height="94.421" transform="translate(192.872 226.65) rotate(-172.76)" fill="#ffc727"/>
      <path id="Path_845" data-name="Path 845" d="M113.976,293.135c-3.1,4.192.087,8.547.087,8.547a11.071,11.071,0,0,0-5.655,5.027c-2,4.117,3.586,9.056,3.586,9.056a13.714,13.714,0,0,0-5.124,6.24c-1.517,4.138,3.412,9.923,3.412,9.923a12.09,12.09,0,0,0-1.083,8.331c2.069,7.442,13.379,10.833,20.583,13s29.553,1.722,33.832,2.058l14.495-45.878s-29.336-19-38.132-20.388C132.566,287.86,117.454,288.423,113.976,293.135Z" transform="translate(11.601 -133.131)" fill="#ad6359"/>
      <path id="Path_846" data-name="Path 846" d="M96.285,305.78c8.547,4.431,35.045,22.674,31.741,34.937s-21.666,14.321-47.817,13Z" transform="translate(89.969 -131.704)" fill="#ad6359"/>
      <path id="Path_847" data-name="Path 847" d="M143.039,300.1c8.168-.65,16.087,1.148,24.1,2.5a.143.143,0,0,1-.054.282c-7.951-1.441-16.076-1.278-24.071-2.394a.2.2,0,1,1,.022-.39Z" transform="translate(-16.822 -132.116)" fill="#263238"/>
      <path id="Path_848" data-name="Path 848" d="M146.442,313.16a21.311,21.311,0,0,1,5.525.823q2.914.65,5.785,1.376,5.774,1.484,11.451,3.25c.173,0,.13.314-.054.271-3.824-.964-7.67-1.885-11.537-2.7q-2.914-.607-5.828-1.17a25.368,25.368,0,0,1-5.417-1.311.282.282,0,0,1,.076-.542Z" transform="translate(-22.511 -131.046)" fill="#263238"/>
      <path id="Path_849" data-name="Path 849" d="M149.917,328.631c1.6-.141,3.4.585,4.94,1.008,1.744.487,3.488.953,5.232,1.419,3.488.932,6.987,1.863,10.508,2.665.173,0,.13.314,0,.271-3.586-.791-7.182-1.549-10.757-2.383-1.766-.4-3.51-.823-5.265-1.257a13.965,13.965,0,0,1-4.669-1.549C149.744,328.75,149.8,328.642,149.917,328.631Z" transform="translate(-27.828 -129.788)" fill="#263238"/>
      <path id="Path_850" data-name="Path 850" d="M96.64,305.78c8.547,4.431,36.128,21.937,32.694,37.537C126.6,355.71,105.5,360.9,79.318,359.566Z" transform="translate(89.613 -131.713)" fill="#455a64"/>
      <path id="Path_851" data-name="Path 851" d="M98.386,307.942h0c.91.552,1.885,1.137,2.892,1.8a13,13,0,0,1-2.968-.867,11.637,11.637,0,0,1-2.979-1.733A10.829,10.829,0,0,1,98.386,307.942Zm26.747,33.907a12.089,12.089,0,0,1,1.733-2.968,12.112,12.112,0,0,1-.91,3.315,11.635,11.635,0,0,1-1.733,2.979,12.187,12.187,0,0,1,.867-3.326Zm-15.09-15.805a12.315,12.315,0,0,1,3.337-.878,13.423,13.423,0,0,1-6.327,2.578,12.221,12.221,0,0,1,2.947-1.7ZM79.97,350.1a7.5,7.5,0,0,1,1.408-.249,8.954,8.954,0,0,1-1.668,1.083Zm29.553,1.3a12.559,12.559,0,0,1,.888,3.25,11.8,11.8,0,0,1-1.712-2.99,12.221,12.221,0,0,1-.877-3.337A12.348,12.348,0,0,1,109.523,351.4ZM92.46,337.743a12.655,12.655,0,0,1,2.979,1.733,11.84,11.84,0,0,1-3.315-.91,12,12,0,0,1-2.979-1.733,12.11,12.11,0,0,1,3.315.878Z" transform="translate(91.951 -131.592)" fill="#37474f"/>
      <path id="Path_852" data-name="Path 852" d="M101.027,357.1c4.561-20.1,12.393-40.537,13.509-44.188,0-.173.325-.076.26.1-1.278,3.532-7.7,27.863-13.476,44.21C101.244,357.431,100.984,357.29,101.027,357.1Z" transform="translate(80.926 -131.128)" fill="#263238"/>
      <path id="Path_853" data-name="Path 853" d="M128.185,354.728a186.7,186.7,0,0,1-24.309,1.17,58.5,58.5,0,0,1,1.647-6.023c.087-.184-.238-.282-.292-.065a59.287,59.287,0,0,1-2.34,6.435.444.444,0,0,0,.379.6c4.149.5,16.044.628,24.916-1.657C128.456,355.118,128.456,354.7,128.185,354.728Z" transform="translate(65.348 -128.077)" fill="#263238"/>
      <path id="Path_854" data-name="Path 854" d="M87.079,306.043a71.248,71.248,0,0,1,8.6,5.037l2.08,1.462.856.358c1.192.52,2.372,1.083,3.51,1.69a55.031,55.031,0,0,1,6.348,4.084c.152.1,0,.325-.163.217a51.662,51.662,0,0,0-6.651-3.683l-.91-.412c1.181.921,2.329,1.863,3.423,2.86a94.853,94.853,0,0,1,8.276,8.417c.119.141-.1.3-.217.173-4.7-5.232-21.666-17.712-25.555-19.716C84.284,305.306,85.562,305.176,87.079,306.043Z" transform="translate(100.225 -131.688)" fill="#263238"/>
      <path id="Path_855" data-name="Path 855" d="M189.179,263.581l-5.915-9.891-6.294,7.832,2.134,7.258,6.738.422Z" transform="translate(-75.724 -135.891)" fill="#263238"/>
      <path id="Path_856" data-name="Path 856" d="M186.183,268.042l8.049,75.008-12.491,25.783-9.121-27.527,6.825-73.686Z" transform="translate(-76.065 -134.878)" fill="#263238"/>
      <path id="Path_857" data-name="Path 857" d="M168.954,256.315c6.5,1.874,18.319-7.637,23.183-15.589.336-.542-.238-6.5-.6-13.725-.2-4.409-.3-9.306-.087-13.79l-28.448,5.417s2.307,9.533,1.874,17.333a9.668,9.668,0,0,1-.282,1.831v.3C163.808,241.571,162.66,254.451,168.954,256.315Z" transform="translate(-63.656 -139.197)" fill="#ad6359"/>
      <path id="Path_858" data-name="Path 858" d="M192.078,213.53c-1.083,5.893-5.958,25.263-22.024,24.84a15.486,15.486,0,0,1-2.882-.3q0-.163,0-.292a9.64,9.64,0,0,0,.282-1.842c.433-7.8-1.874-17.333-1.874-17.333Z" transform="translate(-66.284 -139.16)" fill="#263238"/>
      <path id="Path_859" data-name="Path 859" d="M207.556,185.886c1.722,10.291-7.269,38.2-15.166,43.636-11.418,7.908-28.242,6.586-34.471-6.706-6.045-12.891,6.3-49.041,14.928-53.8C185.575,162.01,205.021,170.688,207.556,185.886Z" transform="translate(-71.936 -142.929)" fill="#ad6359"/>
      <path id="Path_860" data-name="Path 860" d="M180.408,198.591c0-.065.119.13.1.206-.52,1.907-.8,4.171.791,5.232v.1C179.206,203.368,179.607,200.313,180.408,198.591Z" transform="translate(-70.864 -140.366)" fill="#263238"/>
      <path id="Path_861" data-name="Path 861" d="M179.538,197.122c3.152.509,1.9,6.76-1.018,6.283S176.895,196.7,179.538,197.122Z" transform="translate(-67.806 -140.487)" fill="#263238"/>
      <path id="Path_862" data-name="Path 862" d="M194.382,196.242c0-.076-.162.065-.173.141-.336,1.95-1.083,4.127-2.914,4.42-.054,0-.065.108,0,.108C193.494,201.041,194.393,198.148,194.382,196.242Z" transform="translate(-96.397 -140.558)" fill="#263238"/>
      <path id="Path_863" data-name="Path 863" d="M194.464,194.066c-3.066-.867-4.561,5.33-1.712,6.132S197.032,194.781,194.464,194.066Z" transform="translate(-97.801 -140.74)" fill="#263238"/>
      <path id="Path_864" data-name="Path 864" d="M178.224,195.325a24.715,24.715,0,0,1-2.253-1.343,4.236,4.236,0,0,1-2.037-1.8,1.354,1.354,0,0,1,.531-1.549,3.347,3.347,0,0,1,3.38.314,4.9,4.9,0,0,1,2.351,2.643,1.43,1.43,0,0,1-1.972,1.733Z" transform="translate(-63.448 -140.949)" fill="#263238"/>
      <path id="Path_865" data-name="Path 865" d="M190.269,190.987a26,26,0,0,0,2.611-.141,4.247,4.247,0,0,0,2.643-.661,1.332,1.332,0,0,0,.238-1.625,3.326,3.326,0,0,0-3.131-1.267,4.908,4.908,0,0,0-3.315,1.246,1.43,1.43,0,0,0,.953,2.448Z" transform="translate(-95.392 -141.204)" fill="#263238"/>
      <path id="Path_866" data-name="Path 866" d="M186.614,215.009c-.552.368-1.083.9-1.852.812a5.222,5.222,0,0,1-1.982-.9.066.066,0,1,0-.108.076,2.676,2.676,0,0,0,2.253,1.549,2.091,2.091,0,0,0,1.863-1.408C186.842,215.074,186.7,215.009,186.614,215.009Z" transform="translate(-79.507 -139.037)" fill="#263238"/>
      <path id="Path_867" data-name="Path 867" d="M194.692,211.064a6.738,6.738,0,0,1-4.994,2.047,8.233,8.233,0,0,1-2.394-.368,1.841,1.841,0,0,1-.433-.141,3.157,3.157,0,0,1-.412-.152.466.466,0,0,1-.3-.509h0a1.084,1.084,0,0,1,0-.195h0v-.173c.26-1.495.856-3.737.856-3.737-.6.163-3.629.856-3.423.087,1.668-6.37,3.532-13.455,6.5-19.435a.184.184,0,0,1,.347.119c-1.365,6.186-3.813,12.09-5.287,18.275a11.992,11.992,0,0,1,3.3-.314c.2.1-1.235,4.333-1.3,4.983v.076c2.437.823,4.485.444,7.247-.758C194.7,210.772,194.832,210.934,194.692,211.064Z" transform="translate(-88.451 -141.202)" fill="#263238"/>
      <path id="Path_868" data-name="Path 868" d="M183.273,210.682a7.962,7.962,0,0,0,2.784,2.925,3.554,3.554,0,0,0,2.167.466c1.614-.163,1.874-1.592,1.777-2.86a8.536,8.536,0,0,0-.412-1.982A10.291,10.291,0,0,1,183.273,210.682Z" transform="translate(-83.392 -139.5)" fill="#263238"/>
      <path id="Path_869" data-name="Path 869" d="M183.273,213.454a3.554,3.554,0,0,0,2.167.466c1.614-.163,1.874-1.592,1.777-2.86C185.494,211,183.663,211.851,183.273,213.454Z" transform="translate(-80.608 -139.35)" fill="#ff9cbd"/>
      <path id="Path_870" data-name="Path 870" d="M156.446,197.293a33.582,33.582,0,0,0,4.6,11.44,86.305,86.305,0,0,0,3.857-16.12.824.824,0,0,0,0-.163,41.164,41.164,0,0,0,.141-6.76.919.919,0,0,0-.076-.455,14.267,14.267,0,0,0-.357-1.668,4.149,4.149,0,0,0-.173-.628,16.854,16.854,0,0,0-.791-2.221l-.271-.628c-.228-.477-.455-.942-.715-1.4a7.2,7.2,0,0,0-.357-.628,21.662,21.662,0,0,0-1.777-2.535c-.152-.206-.314-.39-.487-.585l-.5-.574C158.754,178.172,155.9,194.3,156.446,197.293Z" transform="translate(-29.363 -142.278)" fill="#263238" opacity="0.2"/>
      <path id="Path_871" data-name="Path 871" d="M169.8,178.687a9.522,9.522,0,0,0,7.756,5.059,9.75,9.75,0,0,0,8.558-4c0-.087.184,0,.13.087a9.609,9.609,0,0,1-8.731,4.68,9.75,9.75,0,0,1-7.919-5.72.119.119,0,1,1,.206-.108Z" transform="translate(-64.789 -141.925)" fill="#263238"/>
      <path id="Path_872" data-name="Path 872" d="M172.893,159.595c5.341,1.332,9.6,5.417,10.736,9.522a10.66,10.66,0,0,1-.52,7.009c0,.087-.227,0-.195-.065a11.732,11.732,0,0,0-3.044-11.537,15.1,15.1,0,0,0-12.664-4.452,9.544,9.544,0,0,0-5.915,2.882c-.141.173-.52-.054-.39-.228C163.122,159.649,168.051,158.392,172.893,159.595Z" transform="translate(-53.101 -143.546)" fill="#263238"/>
      <path id="Path_873" data-name="Path 873" d="M187.634,164.236a12.1,12.1,0,0,1,6.5-5.222c3.748-1.3,7.41-.152,11.028,1.083a.076.076,0,1,1,0,.152c-3.077-1.083-6.262-1.885-9.49-1.083A11.916,11.916,0,0,0,189,163.607a11.656,11.656,0,0,0,1.517,15.166,11.829,11.829,0,0,0,8.883,2.979c.13,0,.173.184,0,.2a11.916,11.916,0,0,1-11.743-17.723Z" transform="translate(-101.673 -143.605)" fill="#263238"/>
      <path id="Path_874" data-name="Path 874" d="M201.022,190.876s7.236-8.482,4.2-14.993c-1.722-3.694-9.836-5.059-9.836-5.059a14.8,14.8,0,0,0-7.876-8.179c-6.381-3.033-15.231-.877-15.231-.877s-5.568-5.059-12.306-2.968c-9.381,2.914-11.147,15.838-3.672,21.774,5.254,4.171,14.408.726,14.408.726.748.271,7.583,6.771,15.08,1.083,0,0,3.889,5.417,8.894,3.315a7.182,7.182,0,0,0,6.337,5.178Z" transform="translate(-65.088 -143.617)" fill="#263238"/>
      <path id="Path_875" data-name="Path 875" d="M156.01,205.627s7.854-8.244,11.689-5.308-3.055,15.556-8.233,16.64a5.048,5.048,0,0,1-6.283-3.7Z" transform="translate(-29.587 -140.281)" fill="#ad6359"/>
      <path id="Path_876" data-name="Path 876" d="M165.847,203.561a.076.076,0,0,1,0,.141c-3.662.867-5.958,3.792-7.724,6.9,1.213-1.083,2.719-1.6,4.236-.119a.1.1,0,0,1-.119.163,3.109,3.109,0,0,0-3.542.563,14.081,14.081,0,0,0-2.037,2.492c-.206.282-.737,0-.574-.3v-.076C156.726,208.912,161.07,203.29,165.847,203.561Z" transform="translate(-29.783 -139.964)" fill="#263238"/>
      <path id="Path_877" data-name="Path 877" d="M160.831,236l7.193,16.488L188.076,231l6.012,6.586s-19.283,33.853-19.445,32.358l-7.2-14.083-9.609,10.2.141-24.992Z" transform="translate(-59.899 -137.752)" fill="#ebebeb"/>
      <path id="Path_878" data-name="Path 878" d="M158.738,253.009c.162-4.117.217-8.276.563-12.393a.141.141,0,0,1,.282,0c.932,3.954.228,19.716.347,23.5h0c.4-.444,8.916-8.991,9.013-8.861,1.538,2.232,6.825,12.5,7.193,13.444,3.044-5.417,14.755-24.916,18.416-30.051.108-.152.336,0,.249.13-2.665,5.666-18.145,32.012-18.416,31.947a160.552,160.552,0,0,1-7.583-14.928c-1.43,1.852-9.988,11.472-10.042,10.833A131.734,131.734,0,0,1,158.738,253.009Z" transform="translate(-61.435 -137.132)" fill="#263238"/>
    </g>
    <line id="Line_2" data-name="Line 2" x2="288" transform="translate(704.5 239)" fill="none" stroke="#707070" stroke-width="1"/>
  </g>
</svg>
