<svg id="Icon" xmlns="http://www.w3.org/2000/svg" xmlns:xlink="http://www.w3.org/1999/xlink" width="59.245" height="60.835" viewBox="0 0 59.245 60.835">
  <defs>
    <clipPath id="clip-path">
      <path id="bgicon" d="M47.621,8.034C33.489-5.927,21.45.422,19.356,11.058S-2.2,23.817.205,36.38s28.573,5.1,28.573,16.488S59.036,63.86,59.036,48.942,61.754,21.994,47.621,8.034Z" transform="translate(0 0)" fill="rgba(255,255,255,0.2)"/>
    </clipPath>
  </defs>
  <g id="bgicon-2" data-name="bgicon" transform="translate(0 0)">
    <path id="bgicon-3" data-name="bgicon" d="M47.621,8.034C33.489-5.927,21.45.422,19.356,11.058S-2.2,23.817.205,36.38s28.573,5.1,28.573,16.488S59.036,63.86,59.036,48.942,61.754,21.994,47.621,8.034Z" transform="translate(0 0)" fill="rgba(255,255,255,0.2)"/>
    <g id="bgicon-4" data-name="bgicon" clip-path="url(#clip-path)">
      <g id="Color_Blue" data-name="Color/Blue" transform="translate(0.352 0.16)" opacity="0.2">
        <rect id="Rectangle" width="59" height="60.553" transform="translate(0)" fill="#459eff"/>
      </g>
    </g>
  </g>
  <g id="noun-bug-3326842" transform="translate(-87.752 -57.455)">
    <path id="Path_2034" data-name="Path 2034" d="M144.02,84.093a1.157,1.157,0,0,0-1.636,0l-5.445,5.445h-4.456a11.679,11.679,0,0,0-1.08-2.925l4.16-1.8a1.158,1.158,0,0,0,.639-.7l2.313-6.941a1.157,1.157,0,0,0-2.195-.732l-2.15,6.45-4.059,1.754a11.9,11.9,0,0,0-3.43-2.873,7.071,7.071,0,0,0,.326-2.072,7.188,7.188,0,0,0-2.054-4.987l2.872-2.871a1.157,1.157,0,1,0-1.636-1.636l-3.078,3.078a8.55,8.55,0,0,0-8.4,0l-3.078-3.078a1.157,1.157,0,0,0-1.636,1.636l2.872,2.871a7.188,7.188,0,0,0-2.054,4.987,7.066,7.066,0,0,0,.326,2.072,11.887,11.887,0,0,0-3.43,2.874L103.649,82.9l-2.15-6.45a1.157,1.157,0,0,0-2.195.732l2.313,6.941a1.158,1.158,0,0,0,.639.7l4.16,1.8a11.679,11.679,0,0,0-1.081,2.925h-4.456l-5.445-5.445A1.157,1.157,0,0,0,93.8,85.728l5.784,5.784a1.158,1.158,0,0,0,.818.339h4.643c0,.082-.017.161-.017.243v3.979l-4.281,4.207a1.157,1.157,0,0,0-.346.825v9.254a1.157,1.157,0,0,0,2.314,0V101.59l2.351-2.31a11.815,11.815,0,0,0,11.773,11.078h4.141A11.815,11.815,0,0,0,132.754,99.28l2.351,2.31v8.769a1.157,1.157,0,0,0,2.314,0v-9.254a1.157,1.157,0,0,0-.346-.825l-4.281-4.207V92.094c0-.082-.015-.161-.017-.243h4.644a1.158,1.158,0,0,0,.818-.339l5.784-5.784a1.156,1.156,0,0,0,0-1.636Zm-19.326-4.387a4.713,4.713,0,0,1-.137,1.126c-.345-.109-.7-.2-1.05-.273-.1-.022-.2-.04-.308-.059q-.4-.076-.8-.123c-.106-.013-.212-.027-.319-.036-.363-.033-.728-.055-1.1-.055h-4.141c-.369,0-.734.022-1.1.055-.107.01-.213.023-.319.036q-.4.048-.8.124c-.1.019-.2.037-.306.059-.354.077-.7.164-1.05.273a4.713,4.713,0,0,1-.137-1.126,5.8,5.8,0,0,1,11.567,0Zm-6.941,28.34h-.914a9.508,9.508,0,0,1-9.5-9.5V96.917a1.153,1.153,0,0,0,0-.9V92.094a9.472,9.472,0,0,1,9.5-9.5h.914Zm3.227,0h-.914V82.6h.914a9.475,9.475,0,0,1,9.5,9.5v3.928h0a1.153,1.153,0,0,0,0,.9v1.631a9.508,9.508,0,0,1-9.5,9.5Z" fill="#022852"/>
  </g>
</svg>
