<svg id="Icon" xmlns="http://www.w3.org/2000/svg" xmlns:xlink="http://www.w3.org/1999/xlink" width="74.151" height="76.141" viewBox="0 0 74.151 76.141">
  <defs>
    <clipPath id="clip-path">
      <path id="bgicon" d="M59.6,10.055C41.914-7.418,26.847.528,24.225,13.84S-2.75,29.81.257,45.533,36.018,51.92,36.018,66.169s37.87,13.758,37.87-4.913S77.291,27.527,59.6,10.055Z" transform="translate(0 0)" fill="rgba(255,255,255,0.2)"/>
    </clipPath>
  </defs>
  <g id="bgicon-2" data-name="bgicon" transform="translate(0 0)">
    <path id="bgicon-3" data-name="bgicon" d="M59.6,10.055C41.914-7.418,26.847.528,24.225,13.84S-2.75,29.81.257,45.533,36.018,51.92,36.018,66.169s37.87,13.758,37.87-4.913S77.291,27.527,59.6,10.055Z" transform="translate(0 0)" fill="rgba(255,255,255,0.2)"/>
    <g id="bgicon-4" data-name="bgicon" clip-path="url(#clip-path)">
      <g id="Color_Blue" data-name="Color/Blue" transform="translate(0.44 0.2)" opacity="0.2">
        <rect id="Rectangle" width="73.844" height="75.787" transform="translate(0)" fill="#459eff"/>
      </g>
    </g>
  </g>
  <g id="noun-learn-1570292" transform="translate(10.065 10.809)">
    <path id="Path_1736" data-name="Path 1736" d="M145.656,56.16a10.275,10.275,0,1,0,10.279,10.275A10.3,10.3,0,0,0,145.656,56.16Zm0,2.936a7.339,7.339,0,1,1-7.342,7.339A7.319,7.319,0,0,1,145.656,59.1Zm0,20.55a17.27,17.27,0,0,0-16.75,13.188A18.483,18.483,0,0,0,120.37,97.7h0a1.47,1.47,0,0,0-.321.551l-5.14,14.678a1.469,1.469,0,0,0,2.593,1.33c2.334-3.353,7.663-5.986,13.468-5.986,5.846,0,11.143,2.582,13.468,5.963a1.469,1.469,0,0,0,2.433,0c2.326-3.382,7.623-5.963,13.468-5.963,5.806,0,11.135,2.633,13.468,5.986a1.469,1.469,0,0,0,2.593-1.33l-5.14-14.678a1.471,1.471,0,0,0-.321-.551,18.486,18.486,0,0,0-8.536-4.862,17.27,17.27,0,0,0-16.75-13.188Zm0,2.936a14.364,14.364,0,0,1,13.515,9.679,21.96,21.96,0,0,0-2.294-.138,21.021,21.021,0,0,0-11.22,3.417,21.021,21.021,0,0,0-11.22-3.417,21.944,21.944,0,0,0-2.294.138,14.363,14.363,0,0,1,13.515-9.679Zm-11.22,12.477a18.58,18.58,0,0,1,9.752,2.982v11.834a20.52,20.52,0,0,0-13.217-4.541,21.538,21.538,0,0,0-11.45,3.28l3.143-9.013a16.681,16.681,0,0,1,11.771-4.541Zm22.441,0A16.682,16.682,0,0,1,168.648,99.6l3.143,9.013a21.538,21.538,0,0,0-11.45-3.28,20.518,20.518,0,0,0-13.217,4.541V98.04a18.58,18.58,0,0,1,9.752-2.982Z" transform="translate(-114.82 -56.16)" fill="#022852"/>
  </g>
</svg>
