<svg id="Icon" xmlns="http://www.w3.org/2000/svg" xmlns:xlink="http://www.w3.org/1999/xlink" width="59.245" height="60.835" viewBox="0 0 59.245 60.835">
  <defs>
    <clipPath id="clip-path">
      <path id="bgicon" d="M47.621,8.034C33.489-5.927,21.45.422,19.356,11.058S-2.2,23.817.205,36.38s28.573,5.1,28.573,16.488S59.036,63.86,59.036,48.942,61.754,21.994,47.621,8.034Z" transform="translate(0 0)" fill="rgba(255,255,255,0.2)"/>
    </clipPath>
  </defs>
  <g id="bgicon-2" data-name="bgicon" transform="translate(0 0)">
    <path id="bgicon-3" data-name="bgicon" d="M47.621,8.034C33.489-5.927,21.45.422,19.356,11.058S-2.2,23.817.205,36.38s28.573,5.1,28.573,16.488S59.036,63.86,59.036,48.942,61.754,21.994,47.621,8.034Z" transform="translate(0 0)" fill="rgba(255,255,255,0.2)"/>
    <g id="bgicon-4" data-name="bgicon" clip-path="url(#clip-path)">
      <g id="Color_Blue" data-name="Color/Blue" transform="translate(0.352 0.16)" opacity="0.2">
        <rect id="Rectangle" width="59" height="60.553" transform="translate(0)" fill="#459eff"/>
      </g>
    </g>
  </g>
  <g id="noun-direction-1701994" transform="translate(-124.759 -21.787)">
    <path id="Path_2033" data-name="Path 2033" d="M170.244,49.982l.349-.116,7.553-6.449h0a.581.581,0,0,0,0-.93l-7.553-6.333-.349-.116h-7.96V33.772a3.486,3.486,0,0,0-6.972,0v2.266h-9.47a3.486,3.486,0,0,0-3.486,3.486V46.5a3.486,3.486,0,0,0,3.486,3.486h9.47v5.81H142.7a.521.521,0,0,0-.348.174L134.8,62.416h0a.582.582,0,0,0-.232.407.7.7,0,0,0,.232.465l7.553,6.333.349.116h12.608V80.485a.523.523,0,0,0,.581.581h5.81a.524.524,0,0,0,.581-.581V69.736h4.822a3.486,3.486,0,0,0,3.486-3.486V59.278a3.485,3.485,0,0,0-3.486-3.486h-4.822v-5.81Zm-13.77-16.21a2.324,2.324,0,0,1,4.648,0v2.266h-4.648ZM143.518,46.5V39.523a2.324,2.324,0,0,1,2.324-2.324h24.17l6.856,5.752-6.856,5.868h-24.17a2.324,2.324,0,0,1-2.324-2.324Zm17.6,33.408h-4.648V69.736h4.648Zm8.309-20.626v6.972a2.324,2.324,0,0,1-2.324,2.324h-24.17l-6.856-5.752,6.856-5.868h24.17a2.324,2.324,0,0,1,2.324,2.324Zm-8.309-3.486h-4.648v-5.81h4.648Z" fill="#022852" stroke="#022852" stroke-width="1"/>
  </g>
</svg>
