<svg xmlns="http://www.w3.org/2000/svg" xmlns:xlink="http://www.w3.org/1999/xlink" width="74.151" height="76.141" viewBox="0 0 74.151 76.141">
  <defs>
    <clipPath id="clip-path">
      <path id="bgicon" d="M59.6,10.055C41.914-7.418,26.847.528,24.225,13.84S-2.75,29.81.257,45.533,36.018,51.92,36.018,66.169s37.87,13.758,37.87-4.913S77.291,27.527,59.6,10.055Z" transform="translate(0 0)" fill="rgba(255,255,255,0.2)"/>
    </clipPath>
  </defs>
  <g id="Icon" transform="translate(0)">
    <g id="bgicon-2" data-name="bgicon" transform="translate(0 0)">
      <path id="bgicon-3" data-name="bgicon" d="M59.6,10.055C41.914-7.418,26.847.528,24.225,13.84S-2.75,29.81.257,45.533,36.018,51.92,36.018,66.169s37.87,13.758,37.87-4.913S77.291,27.527,59.6,10.055Z" transform="translate(0 0)" fill="rgba(255,255,255,0.2)"/>
      <g id="bgicon-4" data-name="bgicon" clip-path="url(#clip-path)">
        <g id="Color_Blue" data-name="Color/Blue" transform="translate(-0.367 -0.274)" opacity="0.2">
          <rect id="Rectangle" width="74.389" height="76.347" fill="#459eff"/>
        </g>
      </g>
    </g>
    <g id="noun-jobs-2473278" transform="translate(10.922 18.747)">
      <path id="Path_1699" data-name="Path 1699" d="M201.079,169.557a.722.722,0,0,0-.429.128,2.358,2.358,0,0,0-.772.558,2.545,2.545,0,0,0-.558.772l-.128.386a1.177,1.177,0,0,0-.043.386v6.049l23.769,6.521h5.964l23.726-6.478v-6.093a1.177,1.177,0,0,0-.043-.386l-.128-.386a2.545,2.545,0,0,0-.558-.772,2.515,2.515,0,0,0-.815-.558.691.691,0,0,0-.386-.128,1.2,1.2,0,0,0-.386-.043H201.421a.844.844,0,0,0-.344.043Zm-1.931,31.749a1.058,1.058,0,0,0,.043.344l.128.386a2.744,2.744,0,0,0,.558.815,3.427,3.427,0,0,0,.815.558.691.691,0,0,0,.386.128.8.8,0,0,0,.344.086h48.868a.8.8,0,0,0,.343-.086.725.725,0,0,0,.429-.128,2.546,2.546,0,0,0,.772-.558,3.642,3.642,0,0,0,.6-.815l.128-.386a1.058,1.058,0,0,0,.043-.344V181.27l-20.68,5.621a3.087,3.087,0,0,0,.128.344,4.7,4.7,0,0,1,.086.815v1.459a4.68,4.68,0,0,1-.086.772,7.022,7.022,0,0,1-.257.686,3.913,3.913,0,0,1-.816,1.116,3.575,3.575,0,0,1-1.115.815,4.175,4.175,0,0,1-.686.214,2.427,2.427,0,0,1-.772.128h-5.063a2.427,2.427,0,0,1-.772-.128,1.877,1.877,0,0,1-.686-.258,3,3,0,0,1-1.115-.815,2.893,2.893,0,0,1-.772-1.115,1.887,1.887,0,0,1-.258-.686,4.833,4.833,0,0,1-.086-.73V188.05a4.767,4.767,0,0,1,.086-.772c.043-.128.086-.257.128-.386l-20.723-5.663Zm56.59,1.073a5.756,5.756,0,0,1-.344,1.03,6.243,6.243,0,0,1-1.244,1.759,6.863,6.863,0,0,1-1.716,1.2,4.838,4.838,0,0,1-1.03.344,5.014,5.014,0,0,1-1.115.172H201.421a5.02,5.02,0,0,1-1.116-.172,4.831,4.831,0,0,1-1.029-.344,6.712,6.712,0,0,1-1.716-1.244,6.158,6.158,0,0,1-1.2-1.716,9.571,9.571,0,0,1-.344-1.03,4.572,4.572,0,0,1-.128-1.073V171.789a4.667,4.667,0,0,1,.128-1.115,9.525,9.525,0,0,1,.344-1.03,6.864,6.864,0,0,1,1.2-1.716,6.532,6.532,0,0,1,1.716-1.2,3.24,3.24,0,0,1,1.029-.344,4.99,4.99,0,0,1,1.116-.128h11.755v-1.673a5.857,5.857,0,0,1,.086-.858,2.122,2.122,0,0,1,.258-.729,4.27,4.27,0,0,1,.858-1.244,4.806,4.806,0,0,1,1.244-.9c.257-.086.515-.172.729-.258a5.759,5.759,0,0,1,.858-.086H234.5a5.748,5.748,0,0,1,.857.086c.215.086.472.172.73.258a4.817,4.817,0,0,1,1.244.9,4.9,4.9,0,0,1,.9,1.2l.258.772a5.317,5.317,0,0,1,.086.858v1.673h11.713a4.982,4.982,0,0,1,1.115.128,3.246,3.246,0,0,1,1.03.344,5.685,5.685,0,0,1,1.716,1.2,4.792,4.792,0,0,1,1.2,1.716,3.664,3.664,0,0,1,.386,1.03,4.666,4.666,0,0,1,.128,1.115v29.517a4.571,4.571,0,0,1-.128,1.073ZM235.4,166.253v-1.759a.156.156,0,0,1-.043-.128,1.5,1.5,0,0,0-.6-.6c-.043,0-.086-.043-.128-.043H217.125c-.043,0-.086.043-.172.043-.086.085-.214.171-.3.257s-.172.214-.257.3c0,.086,0,.129-.043.172v1.759Zm-12.056,21.367h-.086c-.043.043-.128.086-.172.128-.043.086-.128.128-.128.214a.042.042,0,0,0-.043.043v1.5a.042.042,0,0,0,.043.043l.128.257c.086.043.129.086.215.128h.043v.043h5.063v-.043h.043a.886.886,0,0,0,.258-.171.933.933,0,0,0,.128-.214c.043-.043.043-.043.043-.086v-1.5l-.172-.172a.755.755,0,0,0-.214-.171h-5.149Z" transform="translate(-195.887 -160.506)" fill="#022852"/>
    </g>
  </g>
</svg>
