<svg id="Icon" xmlns="http://www.w3.org/2000/svg" xmlns:xlink="http://www.w3.org/1999/xlink" width="74.151" height="76.141" viewBox="0 0 74.151 76.141">
  <defs>
    <clipPath id="clip-path">
      <path id="bgicon" d="M59.6,10.055C41.914-7.418,26.847.528,24.225,13.84S-2.75,29.81.257,45.533,36.018,51.92,36.018,66.169s37.87,13.758,37.87-4.913S77.291,27.527,59.6,10.055Z" transform="translate(0 0)" fill="rgba(255,255,255,0.2)"/>
    </clipPath>
  </defs>
  <g id="bgicon-2" data-name="bgicon" transform="translate(0 0)">
    <path id="bgicon-3" data-name="bgicon" d="M59.6,10.055C41.914-7.418,26.847.528,24.225,13.84S-2.75,29.81.257,45.533,36.018,51.92,36.018,66.169s37.87,13.758,37.87-4.913S77.291,27.527,59.6,10.055Z" transform="translate(0 0)" fill="rgba(255,255,255,0.2)"/>
    <g id="bgicon-4" data-name="bgicon" clip-path="url(#clip-path)">
      <g id="Color_Blue" data-name="Color/Blue" transform="translate(0.44 0.371)" opacity="0.2">
        <rect id="Rectangle" width="73.844" height="75.787" transform="translate(0)" fill="#459eff"/>
      </g>
    </g>
    <g id="noun-help-4148310" transform="translate(6.698 12.887)">
      <path id="Path_1657" data-name="Path 1657" d="M240.6,142.317a1.853,1.853,0,0,1-1.961-1.961v-3.922a1.986,1.986,0,0,1,1.176-1.765s6.863-2.745,10-7.059a7.88,7.88,0,0,0-.392-8.039,8.3,8.3,0,0,0-8.628-4.314c-8.628.784-9.608,7.647-9.608,7.843a1.971,1.971,0,0,1-3.922-.392c.392-3.529,3.529-10.588,13.137-11.373a12.728,12.728,0,0,1,12.549,6.471,11.773,11.773,0,0,1,.2,12.157,28.246,28.246,0,0,1-10.588,7.843v2.549A1.965,1.965,0,0,1,240.6,142.317Z" transform="translate(-211.575 -100.748)" fill="#022852"/>
      <path id="Path_1658" data-name="Path 1658" d="M329.211,418.37a1.179,1.179,0,0,1-.784-.2c-.2-.2-.392-.2-.588-.392a1.78,1.78,0,0,1-.588-1.373,1.179,1.179,0,0,1,.2-.784c0-.2.2-.392.392-.588a.192.192,0,0,1,.2-.2l.784-.392a1.975,1.975,0,0,1,2.157,1.177c0,.2.2.588.2.784a2.01,2.01,0,0,1-1.961,1.961Z" transform="translate(-300.387 -369.938)" fill="#022852"/>
      <path id="Path_1659" data-name="Path 1659" d="M116.912,76.325a29.412,29.412,0,1,1,29.412-29.412A29.373,29.373,0,0,1,116.912,76.325Zm0-54.9A25.491,25.491,0,1,0,142.4,46.912,25.44,25.44,0,0,0,116.912,21.422Z" transform="translate(-87.5 -17.5)" fill="#022852"/>
    </g>
  </g>
</svg>
