<svg id="Icon" xmlns="http://www.w3.org/2000/svg" xmlns:xlink="http://www.w3.org/1999/xlink" width="74.151" height="76.141" viewBox="0 0 74.151 76.141">
  <defs>
    <clipPath id="clip-path">
      <path id="bgicon" d="M59.6,10.055C41.914-7.418,26.847.528,24.225,13.84S-2.75,29.81.257,45.533,36.018,51.92,36.018,66.169s37.87,13.758,37.87-4.913S77.291,27.527,59.6,10.055Z" transform="translate(0 0)" fill="rgba(255,255,255,0.2)"/>
    </clipPath>
  </defs>
  <g id="bgicon-2" data-name="bgicon" transform="translate(0 0)">
    <path id="bgicon-3" data-name="bgicon" d="M59.6,10.055C41.914-7.418,26.847.528,24.225,13.84S-2.75,29.81.257,45.533,36.018,51.92,36.018,66.169s37.87,13.758,37.87-4.913S77.291,27.527,59.6,10.055Z" transform="translate(0 0)" fill="rgba(255,255,255,0.2)"/>
    <g id="bgicon-4" data-name="bgicon" clip-path="url(#clip-path)">
      <g id="Color_Blue" data-name="Color/Blue" transform="translate(-0.367 -0.274)" opacity="0.2">
        <rect id="Rectangle" width="74.389" height="76.347" fill="#459eff"/>
      </g>
    </g>
  </g>
  <g id="noun-event-1533128" transform="translate(-70.737 -50.864)">
    <path id="Path_2036" data-name="Path 2036" d="M176.385,78.469a5.511,5.511,0,0,0-5.511-5.511h-2.811V69.981a1.1,1.1,0,0,0-2.2,0v2.976H144.365V69.981a1.1,1.1,0,0,0-2.2,0v2.976h-2.811a5.511,5.511,0,0,0-5.511,5.511v26.454a5.511,5.511,0,0,0,5.511,5.511h31.525a5.511,5.511,0,0,0,5.511-5.511Zm-37.036-3.307h2.811v2.094a1.1,1.1,0,0,0,2.2,0V75.162h21.494v2.094a1.1,1.1,0,0,0,2.2,0V75.162h2.811a3.308,3.308,0,0,1,3.307,3.307v4.078H136.043V78.469a3.308,3.308,0,0,1,3.307-3.307Zm31.525,33.068H139.349a3.307,3.307,0,0,1-3.307-3.307V84.752h38.138v20.171a3.307,3.307,0,0,1-3.307,3.307Z" transform="translate(-43.442)"/>
    <path id="Path_2037" data-name="Path 2037" d="M279.181,289.632l-9.81,8.653-4.409-4.464a1.1,1.1,0,0,0-1.543,1.543l5.07,5.236h0a1.1,1.1,0,0,0,.827.331,1.324,1.324,0,0,0,.717-.276l10.637-9.369a1.213,1.213,0,0,0,.11-1.6,1.157,1.157,0,0,0-1.6-.055Z" transform="translate(-160.072 -198.763)"/>
  </g>
</svg>
