<svg xmlns="http://www.w3.org/2000/svg" width="74.151" height="76.141" viewBox="0 0 74.151 76.141">
  <g id="Icon" transform="translate(0)">
    <g id="bgicon" transform="translate(0 0)">
      <path id="bgicon-2" data-name="bgicon" d="M59.6,10.055C41.914-7.418,26.847.528,24.225,13.84S-2.75,29.81.257,45.533,36.018,51.92,36.018,66.169s37.87,13.758,37.87-4.913S77.291,27.527,59.6,10.055Z" fill="#daecff"/>
    </g>
    <g id="noun-research-4390935" transform="translate(-62.373 -59.591)">
      <path id="Path_2035" data-name="Path 2035" d="M131.074,119.956l-3.3-7.014V83.97a.845.845,0,0,0-.845-.845H82.975a.845.845,0,0,0-.845.845v28.972l-3.3,7.014a.846.846,0,0,0,.765,1.205h50.715a.846.846,0,0,0,.765-1.205ZM83.82,84.816h42.262v27.471H83.82Zm-2.894,34.655,2.585-5.494h42.881l2.586,5.494Zm36.892-20a6.339,6.339,0,1,0-1.252,1.135l3.818,4.219h0a.845.845,0,0,0,1.254-1.134Zm-9.486-4.088a4.655,4.655,0,1,1,1.363,3.286A4.65,4.65,0,0,1,108.332,95.381ZM88.046,91.155a.845.845,0,0,1,.845-.845h13.1a.845.845,0,1,1,0,1.69h-13.1A.845.845,0,0,1,88.046,91.155Zm0,7.185a.845.845,0,0,1,.845-.845h13.1a.845.845,0,1,1,0,1.69h-13.1A.845.845,0,0,1,88.046,98.34Zm24.512,7.185a.845.845,0,0,1-.845.845H88.891a.845.845,0,1,1,0-1.69h22.822A.845.845,0,0,1,112.558,105.524Zm18.515,14.432-3.3-7.014V83.971a.845.845,0,0,0-.845-.845H82.975a.845.845,0,0,0-.845.845v28.972l-3.3,7.014a.846.846,0,0,0,.765,1.205h50.715a.846.846,0,0,0,.765-1.205ZM83.82,84.816h42.262v27.471H83.82Zm-2.894,34.655,2.585-5.494h42.881l2.586,5.494Zm36.892-20a6.339,6.339,0,1,0-1.252,1.135l3.818,4.219h0a.845.845,0,0,0,1.253-1.134Zm-9.486-4.088a4.655,4.655,0,1,1,1.363,3.286A4.65,4.65,0,0,1,108.332,95.382ZM88.046,91.156a.845.845,0,0,1,.845-.845h13.1a.845.845,0,0,1,0,1.69h-13.1A.845.845,0,0,1,88.046,91.156Zm0,7.185a.845.845,0,0,1,.845-.845h13.1a.845.845,0,0,1,0,1.69h-13.1A.845.845,0,0,1,88.046,98.34Zm24.512,7.185a.845.845,0,0,1-.845.845H88.891a.845.845,0,0,1,0-1.69h22.822A.845.845,0,0,1,112.558,105.525Z"/>
    </g>
  </g>
</svg>
