<svg id="Icon" xmlns="http://www.w3.org/2000/svg" xmlns:xlink="http://www.w3.org/1999/xlink" width="74.489" height="76.141" viewBox="0 0 74.489 76.141">
  <defs>
    <clipPath id="clip-path">
      <path id="bgicon" d="M59.6,10.055C41.914-7.418,26.847.528,24.225,13.84S-2.75,29.81.257,45.533,36.018,51.92,36.018,66.169s37.87,13.758,37.87-4.913S77.291,27.527,59.6,10.055Z" transform="translate(0 0)" fill="rgba(255,255,255,0.2)"/>
    </clipPath>
  </defs>
  <g id="bgicon-2" data-name="bgicon" transform="translate(0.339 0)">
    <path id="bgicon-3" data-name="bgicon" d="M59.6,10.055C41.914-7.418,26.847.528,24.225,13.84S-2.75,29.81.257,45.533,36.018,51.92,36.018,66.169s37.87,13.758,37.87-4.913S77.291,27.527,59.6,10.055Z" transform="translate(0 0)" fill="rgba(255,255,255,0.2)"/>
    <g id="bgicon-4" data-name="bgicon" clip-path="url(#clip-path)">
      <g id="Color_Blue" data-name="Color/Blue" transform="translate(-0.367 -0.445)" opacity="0.2">
        <rect id="Rectangle" width="75.095" height="77.071" fill="#459eff"/>
      </g>
    </g>
  </g>
  <g id="noun-connect-2097591" transform="translate(0 6.48)">
    <path id="Path_1660" data-name="Path 1660" d="M284.991,187.214a12,12,0,1,0-12,12A12.018,12.018,0,0,0,284.991,187.214Zm-20.459,0a8.455,8.455,0,1,1,8.455,8.455A8.464,8.464,0,0,1,264.532,187.214Z" transform="translate(-237.201 -154.346)" fill="#022852"/>
    <path id="Path_1661" data-name="Path 1661" d="M353.089,382.2c-.061,0-.12.007-.18.009l-1.146-4.657a1.775,1.775,0,1,0-3.447.849l1.175,4.772a7.183,7.183,0,1,0,3.6-.974Zm0,10.843a3.644,3.644,0,0,1-1.238-7.072c.05-.007.1-.015.15-.027a1.772,1.772,0,0,0,.285-.1,3.645,3.645,0,1,1,.8,7.2Z" transform="translate(-311.346 -329.854)" fill="#022852"/>
    <path id="Path_1662" data-name="Path 1662" d="M477.123,236.159a7.2,7.2,0,0,0-6.76,4.752l-4.847-.486a1.775,1.775,0,0,0-.355,3.532l4.856.487a7.193,7.193,0,1,0,7.105-8.286Zm0,10.843a3.646,3.646,0,1,1,3.647-3.646A3.65,3.65,0,0,1,477.123,247Z" transform="translate(-414.098 -207.567)" fill="#022852"/>
    <path id="Path_1663" data-name="Path 1663" d="M409.951,32.1a1.775,1.775,0,0,0,2.435-.611l3.976-6.635a7.226,7.226,0,1,0-3.16-1.632l-3.86,6.442a1.775,1.775,0,0,0,.609,2.436Zm8.015-17.9a3.646,3.646,0,1,1-3.647,3.646A3.651,3.651,0,0,1,417.967,14.2Z" transform="translate(-366.53 -10.646)" fill="#022852"/>
    <path id="Path_1664" data-name="Path 1664" d="M173.917,87.786a1.775,1.775,0,0,0-.146-2.506l-1.911-1.7a7.181,7.181,0,1,0-2.606,2.434l2.157,1.919a1.775,1.775,0,0,0,2.507-.147ZM162.163,79.7a3.647,3.647,0,1,1,3.647,3.647A3.65,3.65,0,0,1,162.163,79.7Z" transform="translate(-147.81 -64.659)" fill="#022852"/>
    <path id="Path_1665" data-name="Path 1665" d="M94.578,286.358l-7.537,1.808a7.2,7.2,0,1,0,.75,3.471l7.615-1.826a1.775,1.775,0,0,0-.828-3.453ZM80.607,295.02a3.646,3.646,0,1,1,3.647-3.647A3.651,3.651,0,0,1,80.607,295.02Z" transform="translate(-73.411 -249.497)" fill="#022852"/>
  </g>
</svg>
