<svg id="Icon" xmlns="http://www.w3.org/2000/svg" xmlns:xlink="http://www.w3.org/1999/xlink" width="74.151" height="76.141" viewBox="0 0 74.151 76.141">
  <defs>
    <clipPath id="clip-path">
      <path id="bgicon" d="M59.6,10.055C41.914-7.418,26.847.528,24.225,13.84S-2.75,29.81.257,45.533,36.018,51.92,36.018,66.169s37.87,13.758,37.87-4.913S77.291,27.527,59.6,10.055Z" transform="translate(0 0)" fill="rgba(255,255,255,0.2)"/>
    </clipPath>
  </defs>
  <g id="bgicon-2" data-name="bgicon" transform="translate(0 0)">
    <path id="bgicon-3" data-name="bgicon" d="M59.6,10.055C41.914-7.418,26.847.528,24.225,13.84S-2.75,29.81.257,45.533,36.018,51.92,36.018,66.169s37.87,13.758,37.87-4.913S77.291,27.527,59.6,10.055Z" transform="translate(0 0)" fill="rgba(255,255,255,0.2)"/>
    <g id="bgicon-4" data-name="bgicon" clip-path="url(#clip-path)">
      <g id="Color_Blue" data-name="Color/Blue" transform="translate(-0.367 -0.274)" opacity="0.2">
        <rect id="Rectangle" width="74.389" height="76.347" fill="#9b9a95"/>
      </g>
    </g>
  </g>
  <path id="noun-challenge-4199736" d="M180.9,26.219a.88.88,0,0,0-.092.007l-.033.007h-7.7a.9.9,0,0,0-.9.9v1.331H164.21a.9.9,0,0,0-.824,1.264l1.93,4.38-1.93,4.38h0a.9.9,0,0,0,.824,1.265h8.871a.9.9,0,0,0,.907-.905V37.52h6.022V48.661h-5.37a.9.9,0,0,0-.9.9v5.41H161.3a.9.9,0,0,0-.905.9v5.41H147.959a.9.9,0,0,0-.9.9V77.612a.9.9,0,0,0,.9.905h40.025a.9.9,0,0,0,.9-.905V49.561h0a.9.9,0,0,0-.9-.9h-6.17V27.138a.9.9,0,0,0-.912-.917Zm-6.913,1.817h6.022v7.686h-6.023Zm-8.4,2.236h6.594v7.68h-6.594l1.537-3.481a.9.9,0,0,0,0-.725Zm9.956,20.192h11.534V76.713H175.545ZM162.2,56.774h11.541V76.713H162.2Zm-13.337,6.309H160.4V76.713H148.863Z" transform="translate(-127.972 -16.095)"/>
</svg>
