<svg xmlns="http://www.w3.org/2000/svg" width="28" height="28" viewBox="0 0 28 28">
  <g id="Linkedin" transform="translate(-26.179 -193.831)">
    <circle id="Ellipse_10" data-name="Ellipse 10" cx="14" cy="14" r="14" transform="translate(26.179 193.831)" fill="#0179c4"/>
    <g id="Group_958" data-name="Group 958" transform="translate(1.995 0.995)">
      <path id="Path_502" data-name="Path 502" d="M17.753,17.388h0V12.128c0-2.573-.554-4.554-3.561-4.554A3.122,3.122,0,0,0,11.382,9.12h-.042V7.814H8.489v9.573h2.969v-4.74c0-1.248.237-2.455,1.782-2.455,1.523,0,1.546,1.424,1.546,2.535v4.661Z" transform="translate(27.432 196.452)" fill="#fff"/>
      <path id="Path_503" data-name="Path 503" d="M.4,7.977H3.369V17.55H.4Z" transform="translate(31.019 196.29)" fill="#fff"/>
      <path id="Path_504" data-name="Path 504" d="M1.722,0A1.73,1.73,0,1,0,3.444,1.722,1.722,1.722,0,0,0,1.722,0Z" transform="translate(31.179 199.83)" fill="#fff"/>
    </g>
  </g>
</svg>
