<svg xmlns="http://www.w3.org/2000/svg" width="44" height="44" viewBox="0 0 44 44">
  <g id="Twitter" transform="translate(0.468 0.25)">
    <circle id="Ellipse_10" data-name="Ellipse 10" cx="22" cy="22" r="22" transform="translate(-0.468 -0.25)" fill="#06abef"/>
    <path id="twitter-2" data-name="twitter" d="M19.627,6.926A9.239,9.239,0,0,0,21.875,4.47h0a8.988,8.988,0,0,1-2.584.747A4.669,4.669,0,0,0,21.264,2.6,8.7,8.7,0,0,1,18.42,3.747a4.387,4.387,0,0,0-3.276-1.5,4.612,4.612,0,0,0-4.482,4.732,5.129,5.129,0,0,0,.1,1.079A12.491,12.491,0,0,1,1.523,3.112,4.973,4.973,0,0,0,.909,5.5,4.81,4.81,0,0,0,2.9,9.435,4.257,4.257,0,0,1,.875,8.852V8.9a4.7,4.7,0,0,0,3.593,4.649,4.24,4.24,0,0,1-1.176.156,3.759,3.759,0,0,1-.849-.081,4.567,4.567,0,0,0,4.19,3.3,8.721,8.721,0,0,1-5.561,2.017A8.045,8.045,0,0,1,0,18.877,12.156,12.156,0,0,0,6.88,21c7.914,0,13.072-6.965,12.748-14.074Z" transform="translate(10.937 11.811)" fill="#fff"/>
  </g>
</svg>
